<svg width="476" height="232" viewBox="0 0 476 232" fill="none" xmlns="http://www.w3.org/2000/svg">
<path d="M376.516 146.492C359.523 146.492 345.699 160.317 345.699 177.31C345.699 194.303 359.523 208.128 376.516 208.128C393.509 208.128 407.334 194.303 407.334 177.31C407.335 160.317 393.51 146.492 376.516 146.492ZM376.516 194.183C367.213 194.183 359.644 186.613 359.644 177.31C359.644 168.006 367.214 160.437 376.516 160.437C385.82 160.437 393.389 168.007 393.389 177.31C393.39 186.614 385.82 194.183 376.516 194.183Z" fill="#DCE9FE"/>
<path d="M79.2977 146.492C62.3049 146.492 48.4795 160.317 48.4795 177.31C48.4795 194.303 62.3049 208.128 79.2977 208.128C96.2905 208.128 110.116 194.303 110.116 177.31C110.116 160.317 96.2905 146.492 79.2977 146.492ZM79.2977 194.183C69.9934 194.183 62.4248 186.613 62.4248 177.31C62.4248 168.006 69.9943 160.437 79.2977 160.437C88.6011 160.437 96.1706 168.007 96.1706 177.31C96.1706 186.614 88.602 194.183 79.2977 194.183Z" fill="#DCE9FE"/>
<path d="M0 173.827V181.367C0 189.792 6.85366 196.646 15.2794 196.646H28.1779C36.0059 217.27 55.9625 231.974 79.2977 231.974C102.633 231.974 122.59 217.271 130.417 196.646H198.427C202.279 196.646 205.4 193.524 205.4 189.673C205.4 185.822 202.279 182.7 198.427 182.7H133.695C134.036 179.245 134.041 175.816 133.749 172.492H322.064C321.776 175.766 321.774 179.242 322.12 182.7H230.967C227.115 182.7 223.994 185.822 223.994 189.673C223.994 193.524 227.115 196.646 230.967 196.646H325.396C333.224 217.27 353.181 231.974 376.516 231.974C399.852 231.974 419.809 217.271 427.637 196.646H460.721C469.145 196.646 475.999 189.792 475.999 181.367V173.827C475.999 167.777 472.456 162.553 467.344 160.079V138.496C467.344 116.427 451.94 97.0938 429.86 92.5923L360.682 78.4796C360.138 78.369 359.599 78.223 359.064 78.0631C357.011 69.8131 349.562 63.6743 340.687 63.6743H339.797L318.442 45.2842C315.523 42.7712 311.121 43.0994 308.609 46.0177C306.096 48.936 306.423 53.3381 309.341 55.851L321.124 65.9976C317.811 67.8152 315.085 70.6526 313.396 73.8879L281.064 46.0447C273.692 39.6949 264.817 35.1915 255.399 33.0207C202.188 20.7516 142.503 22.0243 88.4979 40.302C75.5529 44.6836 64.3781 53.3948 57.0298 64.8337C54.1469 69.3222 55.0198 75.3577 59.0565 78.8738L87.677 103.804C89.6553 105.53 92.1915 106.48 94.8198 106.48H316.791C320.328 110.029 325.113 112.065 330.213 112.065H340.69C351.114 112.065 359.647 103.588 359.647 93.1073V92.5021L420.726 104.963V125.222C420.726 135.869 429.389 144.532 440.037 144.532H453.401V158.55H427.878C420.027 136.981 399.468 122.648 376.519 122.648C353.664 122.648 333.042 136.897 325.161 158.55H130.655C122.763 136.864 102.114 122.648 79.2977 122.648C56.4767 122.648 35.8302 136.869 27.9399 158.55H20.6047L18.9191 152.371C17.9374 148.771 17.44 145.055 17.44 141.324V136.594H24.4489C34.9014 136.594 43.4053 128.091 43.4053 117.637V111.493C43.4053 101.578 35.7511 93.4308 26.0433 92.6164L47.7841 58.8316C56.4776 45.3223 69.6819 35.0334 84.9632 29.8616C157.514 5.30668 224.438 14.572 257.873 22.28C267.7 24.5466 276.775 28.8045 284.846 34.9358C287.913 37.2665 292.287 36.6678 294.616 33.6027C296.946 30.5365 296.349 26.1624 293.282 23.8326C283.63 16.4983 272.77 11.4045 261.005 8.69168C226.131 0.650813 156.307 -9.00678 80.4923 16.6526C62.2314 22.8322 46.4518 35.1311 36.057 51.2844L12.3927 88.0591C6.61008 97.0464 3.4947 107.59 3.4947 118.332V129.621V141.323C3.4947 146.293 4.15756 151.244 5.4647 156.04L6.84529 161.1C2.72491 163.837 0 168.518 0 173.827H0ZM271.962 56.6106L311.254 90.4465V92.5337H221.67V41.2558C233.712 42.7387 244.083 44.7217 252.266 46.6081C259.488 48.2722 266.298 51.7316 271.962 56.6106ZM70.2788 70.1543C80.709 55.8491 94.7296 52.1378 114.427 47.2495L122.107 92.5337H95.9698L70.2788 70.1543ZM136.251 92.5337L128.059 44.2299C169.771 36.0914 201.595 39.7869 207.724 39.8576V92.5337H136.251ZM340.687 98.1183H330.21C327.266 98.1183 325.198 95.6221 325.198 93.1064C325.198 89.237 325.198 86.4926 325.198 82.6307C325.198 79.8676 327.446 77.6187 330.21 77.6187H340.687C343.451 77.6187 345.699 79.8667 345.699 82.6307V93.1064C345.699 95.8694 343.451 98.1183 340.687 98.1183ZM376.516 218.028C353.887 218.028 335.798 199.57 335.798 177.31C335.798 155.145 353.824 136.592 376.516 136.592C399.244 136.592 417.235 155.175 417.235 177.31C417.235 199.583 399.119 218.028 376.516 218.028ZM434.669 125.22V108.817C443.499 113.055 450.045 121.082 452.419 130.585H440.035C437.076 130.585 434.669 128.178 434.669 125.22ZM460.371 172.493H460.721C461.455 172.493 462.054 173.092 462.054 173.827V181.368C462.054 182.104 461.455 182.701 460.721 182.701H430.913C431.267 179.156 431.25 175.701 430.969 172.493H460.371ZM79.2977 218.028C56.6691 218.028 38.5792 199.57 38.5792 177.31C38.5792 154.887 56.8467 136.592 79.2977 136.592C101.692 136.592 120.016 154.829 120.016 177.31C120.016 199.638 101.856 218.028 79.2977 218.028ZM24.8459 172.493C24.5521 175.836 24.5651 179.335 24.9017 182.701H15.2794C14.544 182.701 13.9453 182.103 13.9453 181.368V173.827C13.9453 173.091 14.544 172.492 15.2794 172.492H24.8459V172.493ZM29.4599 111.49V117.634C29.4599 120.397 27.212 122.646 24.4489 122.646H17.4409C17.5664 120.091 16.872 114.186 19.146 106.479H24.4499C27.2129 106.479 29.4599 108.727 29.4599 111.49Z" fill="#DCE9FE"/>
<path d="M244.158 132.879C248.01 132.879 251.131 129.758 251.131 125.907C251.131 122.056 248.01 118.934 244.158 118.934H235.42C231.568 118.934 228.447 122.056 228.447 125.907C228.447 129.758 231.568 132.879 235.42 132.879H244.158Z" fill="#DCE9FE"/>
<path d="M156.774 132.879C160.626 132.879 163.747 129.758 163.747 125.907C163.747 122.056 160.626 118.934 156.774 118.934H148.036C144.184 118.934 141.063 122.056 141.063 125.907C141.063 129.758 144.184 132.879 148.036 132.879H156.774Z" fill="#DCE9FE"/>
</svg>
