<svg width="44" height="44" viewBox="0 0 44 44" fill="none" xmlns="http://www.w3.org/2000/svg">
<mask id="path-2-inside-1" fill="white">
<path d="M32.4367 9.03596C34.9279 9.03596 36.9547 7.00923 36.9547 4.51798C36.9547 2.02673 34.9279 0 32.4367 0C29.9454 0 27.9187 2.02673 27.9187 4.51789C27.9187 7.00914 29.9455 9.03596 32.4367 9.03596ZM32.4367 0.760483C34.5086 0.760483 36.1942 2.44607 36.1942 4.51798C36.1942 6.58989 34.5086 8.27548 32.4367 8.27548C30.3648 8.27548 28.6792 6.58989 28.6792 4.51798C28.6792 2.44607 30.3648 0.760483 32.4367 0.760483Z"/>
</mask>
<path d="M32.4367 9.03596C34.9279 9.03596 36.9547 7.00923 36.9547 4.51798C36.9547 2.02673 34.9279 0 32.4367 0C29.9454 0 27.9187 2.02673 27.9187 4.51789C27.9187 7.00914 29.9455 9.03596 32.4367 9.03596ZM32.4367 0.760483C34.5086 0.760483 36.1942 2.44607 36.1942 4.51798C36.1942 6.58989 34.5086 8.27548 32.4367 8.27548C30.3648 8.27548 28.6792 6.58989 28.6792 4.51798C28.6792 2.44607 30.3648 0.760483 32.4367 0.760483Z" fill="#F4C1C4"/>
<path d="M27.9187 4.51789H28.9187H27.9187ZM28.6792 4.51798L29.6792 4.51798L28.6792 4.51798ZM32.4367 10.036C35.4802 10.036 37.9547 7.56152 37.9547 4.51798H35.9547C35.9547 6.45695 34.3757 8.03596 32.4367 8.03596V10.036ZM37.9547 4.51798C37.9547 1.47445 35.4802 -1 32.4367 -1V1C34.3757 1 35.9547 2.57902 35.9547 4.51798H37.9547ZM32.4367 -1C29.3932 -1 26.9187 1.47443 26.9187 4.51789H28.9187C28.9187 2.57903 30.4977 1 32.4367 1V-1ZM26.9187 4.51789C26.9187 7.56142 29.3932 10.036 32.4367 10.036V8.03596C30.4978 8.03596 28.9187 6.45687 28.9187 4.51789L26.9187 4.51789ZM32.4367 1.76048C33.9563 1.76048 35.1942 2.99836 35.1942 4.51798H37.1942C37.1942 1.89378 35.0609 -0.239517 32.4367 -0.239517V1.76048ZM35.1942 4.51798C35.1942 6.03761 33.9563 7.27548 32.4367 7.27548V9.27548C35.0609 9.27548 37.1942 7.14218 37.1942 4.51798H35.1942ZM32.4367 7.27548C30.9171 7.27548 29.6792 6.03761 29.6792 4.51798H27.6792C27.6792 7.14218 29.8125 9.27548 32.4367 9.27548V7.27548ZM29.6792 4.51798C29.6792 2.99835 30.9171 1.76048 32.4367 1.76048V-0.239517C29.8125 -0.239517 27.6792 1.89379 27.6792 4.51798L29.6792 4.51798Z" fill="#F4C1C4" mask="url(#path-2-inside-1)"/>
<mask id="path-4-inside-2" fill="white">
<path d="M40.2247 40.2683L36.7134 26.6527C36.8272 26.2552 36.8856 25.8436 36.8856 25.4272L36.8854 13.7049C36.8854 11.2518 34.8896 9.25598 32.4366 9.25598C30.3463 9.25598 28.5651 10.6895 28.1034 12.7005L20.5817 14.2039C19.9902 14.3221 19.4801 14.6636 19.1454 15.1656C18.8108 15.6675 18.6915 16.2697 18.8097 16.8613C18.9297 17.4617 19.2846 17.9674 19.7659 18.2918C19.0414 18.5021 18.4206 18.9561 17.9984 19.5916L3.74302 41.0498C3.6268 41.2247 3.67439 41.4607 3.84931 41.5769C3.91408 41.6199 3.98709 41.6405 4.05938 41.6405C4.18249 41.6405 4.30327 41.5808 4.37645 41.4706L18.6319 20.0123C18.9922 19.4699 19.5422 19.1003 20.1805 18.9715C20.8193 18.8428 21.4693 18.9705 22.0117 19.3308C22.5541 19.6911 22.9237 20.2411 23.0526 20.8795C23.1813 21.5178 23.0538 22.1681 22.6933 22.7105C22.5771 22.8854 22.6247 23.1215 22.7996 23.2377C22.9746 23.3539 23.2106 23.3063 23.3268 23.1313C23.7995 22.4197 23.9668 21.5665 23.798 20.7291C23.6291 19.8916 23.1441 19.1701 22.4325 18.6973C22.3258 18.6265 22.2156 18.5634 22.103 18.5063L27.9877 17.3302V25.4272C27.9877 25.7296 28.0193 26.0259 28.0779 26.3133L23.5887 39.94C23.339 40.6975 23.3993 41.5068 23.7583 42.2188C24.1174 42.9308 24.7323 43.4603 25.4898 43.7099C25.7989 43.8117 26.1128 43.8601 26.4219 43.8601C27.6759 43.86 28.8464 43.063 29.2598 41.8087L32.1741 32.963L34.4427 41.7592C34.7829 43.0785 35.9708 43.9999 37.3317 43.9999C37.5827 43.9999 37.8342 43.9679 38.0792 43.9046C38.8515 43.7055 39.5 43.2175 39.9052 42.5308C40.3104 41.8441 40.424 41.0405 40.2247 40.2683ZM19.7782 15.5875C20.0001 15.2546 20.3384 15.028 20.7308 14.9498L31.3524 12.8268C31.45 12.8073 31.5494 12.7973 31.6479 12.7973C32.3584 12.7973 32.9754 13.3042 33.1149 14.0024C33.2768 14.8124 32.7493 15.6031 31.9393 15.765L21.318 17.8878C21.2204 17.9073 21.1209 17.9173 21.0224 17.9173C20.3119 17.9173 19.6949 17.4106 19.5555 16.7125C19.4771 16.3199 19.5562 15.9204 19.7782 15.5875ZM32.0884 16.5105C33.3096 16.2666 34.1047 15.0745 33.8608 13.8532C33.6503 12.8006 32.7197 12.0368 31.648 12.0368C31.4996 12.0368 31.3501 12.0516 31.2034 12.081L28.939 12.5336C29.4323 11.0465 30.8234 10.0166 32.4367 10.0166C34.4704 10.0166 36.125 11.6712 36.125 13.705L36.1252 24.9009C35.5929 24.0348 34.6405 23.4788 33.5837 23.4788C33.3329 23.4788 33.0815 23.5108 32.8364 23.574C31.2421 23.9851 30.2794 25.6166 30.6905 27.2107L31.119 28.8725C29.7148 28.3358 28.7482 26.9736 28.7482 25.4274V17.1783L32.0884 16.5105ZM28.5374 41.5707C28.1533 42.7359 26.8929 43.3716 25.7277 42.9877C25.5273 42.9216 25.3411 42.8282 25.1712 42.7127L27.9851 35.2089C28.0588 35.0123 27.9592 34.7931 27.7625 34.7194C27.5661 34.6457 27.3468 34.7453 27.273 34.9419L24.5817 42.1188C24.5294 42.0412 24.48 41.9612 24.4373 41.8763C24.1697 41.3457 24.1248 40.7426 24.3109 40.178L28.493 27.4832C29.0675 28.5822 30.0902 29.4222 31.3425 29.7387L31.8225 31.5999L28.5374 41.5707ZM39.2503 42.1444C39.1221 42.3616 38.9598 42.5501 38.7733 42.7087L35.7776 32.4195C35.7189 32.2179 35.5081 32.1023 35.3061 32.1606C35.1045 32.2193 34.9887 32.4304 35.0473 32.632L38.0961 43.1041C38.0285 43.1286 37.9596 43.1501 37.889 43.1683C37.706 43.2155 37.5185 43.2394 37.3316 43.2394C36.3176 43.2394 35.4324 42.5527 35.1789 41.5692L31.4267 27.0207C31.1204 25.8326 31.8379 24.6167 33.0262 24.3103C33.2092 24.2632 33.3967 24.2393 33.5835 24.2393C34.5974 24.2393 35.4827 24.926 35.7364 25.9094L39.4884 40.4582C39.6368 41.0338 39.5523 41.6326 39.2503 42.1444Z"/>
</mask>
<path d="M40.2247 40.2683L36.7134 26.6527C36.8272 26.2552 36.8856 25.8436 36.8856 25.4272L36.8854 13.7049C36.8854 11.2518 34.8896 9.25598 32.4366 9.25598C30.3463 9.25598 28.5651 10.6895 28.1034 12.7005L20.5817 14.2039C19.9902 14.3221 19.4801 14.6636 19.1454 15.1656C18.8108 15.6675 18.6915 16.2697 18.8097 16.8613C18.9297 17.4617 19.2846 17.9674 19.7659 18.2918C19.0414 18.5021 18.4206 18.9561 17.9984 19.5916L3.74302 41.0498C3.6268 41.2247 3.67439 41.4607 3.84931 41.5769C3.91408 41.6199 3.98709 41.6405 4.05938 41.6405C4.18249 41.6405 4.30327 41.5808 4.37645 41.4706L18.6319 20.0123C18.9922 19.4699 19.5422 19.1003 20.1805 18.9715C20.8193 18.8428 21.4693 18.9705 22.0117 19.3308C22.5541 19.6911 22.9237 20.2411 23.0526 20.8795C23.1813 21.5178 23.0538 22.1681 22.6933 22.7105C22.5771 22.8854 22.6247 23.1215 22.7996 23.2377C22.9746 23.3539 23.2106 23.3063 23.3268 23.1313C23.7995 22.4197 23.9668 21.5665 23.798 20.7291C23.6291 19.8916 23.1441 19.1701 22.4325 18.6973C22.3258 18.6265 22.2156 18.5634 22.103 18.5063L27.9877 17.3302V25.4272C27.9877 25.7296 28.0193 26.0259 28.0779 26.3133L23.5887 39.94C23.339 40.6975 23.3993 41.5068 23.7583 42.2188C24.1174 42.9308 24.7323 43.4603 25.4898 43.7099C25.7989 43.8117 26.1128 43.8601 26.4219 43.8601C27.6759 43.86 28.8464 43.063 29.2598 41.8087L32.1741 32.963L34.4427 41.7592C34.7829 43.0785 35.9708 43.9999 37.3317 43.9999C37.5827 43.9999 37.8342 43.9679 38.0792 43.9046C38.8515 43.7055 39.5 43.2175 39.9052 42.5308C40.3104 41.8441 40.424 41.0405 40.2247 40.2683ZM19.7782 15.5875C20.0001 15.2546 20.3384 15.028 20.7308 14.9498L31.3524 12.8268C31.45 12.8073 31.5494 12.7973 31.6479 12.7973C32.3584 12.7973 32.9754 13.3042 33.1149 14.0024C33.2768 14.8124 32.7493 15.6031 31.9393 15.765L21.318 17.8878C21.2204 17.9073 21.1209 17.9173 21.0224 17.9173C20.3119 17.9173 19.6949 17.4106 19.5555 16.7125C19.4771 16.3199 19.5562 15.9204 19.7782 15.5875ZM32.0884 16.5105C33.3096 16.2666 34.1047 15.0745 33.8608 13.8532C33.6503 12.8006 32.7197 12.0368 31.648 12.0368C31.4996 12.0368 31.3501 12.0516 31.2034 12.081L28.939 12.5336C29.4323 11.0465 30.8234 10.0166 32.4367 10.0166C34.4704 10.0166 36.125 11.6712 36.125 13.705L36.1252 24.9009C35.5929 24.0348 34.6405 23.4788 33.5837 23.4788C33.3329 23.4788 33.0815 23.5108 32.8364 23.574C31.2421 23.9851 30.2794 25.6166 30.6905 27.2107L31.119 28.8725C29.7148 28.3358 28.7482 26.9736 28.7482 25.4274V17.1783L32.0884 16.5105ZM28.5374 41.5707C28.1533 42.7359 26.8929 43.3716 25.7277 42.9877C25.5273 42.9216 25.3411 42.8282 25.1712 42.7127L27.9851 35.2089C28.0588 35.0123 27.9592 34.7931 27.7625 34.7194C27.5661 34.6457 27.3468 34.7453 27.273 34.9419L24.5817 42.1188C24.5294 42.0412 24.48 41.9612 24.4373 41.8763C24.1697 41.3457 24.1248 40.7426 24.3109 40.178L28.493 27.4832C29.0675 28.5822 30.0902 29.4222 31.3425 29.7387L31.8225 31.5999L28.5374 41.5707ZM39.2503 42.1444C39.1221 42.3616 38.9598 42.5501 38.7733 42.7087L35.7776 32.4195C35.7189 32.2179 35.5081 32.1023 35.3061 32.1606C35.1045 32.2193 34.9887 32.4304 35.0473 32.632L38.0961 43.1041C38.0285 43.1286 37.9596 43.1501 37.889 43.1683C37.706 43.2155 37.5185 43.2394 37.3316 43.2394C36.3176 43.2394 35.4324 42.5527 35.1789 41.5692L31.4267 27.0207C31.1204 25.8326 31.8379 24.6167 33.0262 24.3103C33.2092 24.2632 33.3967 24.2393 33.5835 24.2393C34.5974 24.2393 35.4827 24.926 35.7364 25.9094L39.4884 40.4582C39.6368 41.0338 39.5523 41.6326 39.2503 42.1444Z" fill="#F4C1C4"/>
<path d="M40.2247 40.2683L39.2564 40.518L39.2564 40.5181L40.2247 40.2683ZM36.7134 26.6527L35.7521 26.3775L35.6772 26.639L35.7451 26.9024L36.7134 26.6527ZM36.8856 25.4272L37.8856 25.4272L37.8856 25.4272L36.8856 25.4272ZM36.8854 13.7049L35.8854 13.7049L35.8854 13.7049L36.8854 13.7049ZM28.1034 12.7005L28.2994 13.6811L28.9334 13.5544L29.0781 12.9243L28.1034 12.7005ZM20.5817 14.2039L20.7777 15.1846L20.7777 15.1846L20.5817 14.2039ZM19.1454 15.1656L18.3134 14.6108L18.3133 14.6109L19.1454 15.1656ZM18.8097 16.8613L17.8291 17.0572L17.8291 17.0573L18.8097 16.8613ZM19.7659 18.2918L20.0447 19.2521L22.0967 18.6564L20.3247 17.4625L19.7659 18.2918ZM17.9984 19.5916L17.1655 19.0382L17.1655 19.0382L17.9984 19.5916ZM3.74302 41.0498L4.57592 41.6032L4.57596 41.6031L3.74302 41.0498ZM3.84931 41.5769L3.29588 42.4098L3.29673 42.4104L3.84931 41.5769ZM4.37645 41.4706L3.54351 40.9172L3.54336 40.9174L4.37645 41.4706ZM18.6319 20.0123L19.4649 20.5657L19.4649 20.5656L18.6319 20.0123ZM20.1805 18.9715L19.983 17.9913L19.9828 17.9913L20.1805 18.9715ZM22.0117 19.3308L22.5651 18.4978L22.565 18.4978L22.0117 19.3308ZM23.0526 20.8795L24.0328 20.6818L24.0328 20.6816L23.0526 20.8795ZM22.6933 22.7105L21.8605 22.1571L21.8604 22.1571L22.6933 22.7105ZM22.7996 23.2377L22.2462 24.0706L22.2464 24.0707L22.7996 23.2377ZM23.3268 23.1313L22.4938 22.578L22.4938 22.5781L23.3268 23.1313ZM23.798 20.7291L24.7783 20.5314L24.7783 20.5313L23.798 20.7291ZM22.4325 18.6973L21.879 19.5302L21.8791 19.5303L22.4325 18.6973ZM22.103 18.5063L21.907 17.5257L19.0748 18.0918L21.6507 19.3982L22.103 18.5063ZM27.9877 17.3302H28.9877V16.1105L27.7917 16.3496L27.9877 17.3302ZM28.0779 26.3133L29.0277 26.6262L29.1108 26.3739L29.0578 26.1136L28.0779 26.3133ZM23.5887 39.94L24.5384 40.2531L24.5384 40.2529L23.5887 39.94ZM23.7583 42.2188L22.8654 42.669L22.8654 42.6691L23.7583 42.2188ZM25.4898 43.7099L25.1769 44.6597L25.1769 44.6597L25.4898 43.7099ZM26.4219 43.8601L26.4219 44.8601L26.4219 44.8601L26.4219 43.8601ZM29.2598 41.8087L30.2095 42.1217L30.2096 42.1216L29.2598 41.8087ZM32.1741 32.963L33.1424 32.7133L32.291 29.4123L31.2243 32.6501L32.1741 32.963ZM34.4427 41.7592L35.411 41.5095L35.411 41.5094L34.4427 41.7592ZM38.0792 43.9046L37.8295 42.9363L37.8291 42.9364L38.0792 43.9046ZM39.9052 42.5308L39.044 42.0225L39.044 42.0226L39.9052 42.5308ZM19.7782 15.5875L20.6102 16.1422L20.6103 16.1421L19.7782 15.5875ZM20.7308 14.9498L20.9265 15.9304L20.9268 15.9304L20.7308 14.9498ZM31.3524 12.8268L31.1564 11.8461L31.1564 11.8462L31.3524 12.8268ZM33.1149 14.0024L32.1343 14.1983L32.1343 14.1983L33.1149 14.0024ZM31.9393 15.765L32.1353 16.7456L32.1353 16.7456L31.9393 15.765ZM21.318 17.8878L21.514 18.8684L21.514 18.8684L21.318 17.8878ZM19.5555 16.7125L18.5749 16.9082L18.5749 16.9083L19.5555 16.7125ZM32.0884 16.5105L31.8925 15.5299L31.8924 15.5299L32.0884 16.5105ZM33.8608 13.8532L34.8414 13.6574L34.8414 13.6571L33.8608 13.8532ZM31.2034 12.081L31.3994 13.0616L31.3996 13.0615L31.2034 12.081ZM28.939 12.5336L27.9898 12.2187L27.4482 13.8513L29.135 13.5142L28.939 12.5336ZM36.125 13.705L35.125 13.705L35.125 13.705L36.125 13.705ZM36.1252 24.9009L35.2732 25.4244L37.1252 28.4383L37.1252 24.9009L36.1252 24.9009ZM32.8364 23.574L32.5868 22.6056L32.5867 22.6057L32.8364 23.574ZM30.6905 27.2107L29.7222 27.4604L29.7222 27.4604L30.6905 27.2107ZM31.119 28.8725L30.762 29.8066L32.571 30.498L32.0874 28.6228L31.119 28.8725ZM28.7482 17.1783L28.5522 16.1977L27.7482 16.3585V17.1783H28.7482ZM28.5374 41.5707L29.4872 41.8837L29.4872 41.8836L28.5374 41.5707ZM25.7277 42.9877L26.0406 42.0379L26.0406 42.0379L25.7277 42.9877ZM25.1712 42.7127L24.2348 42.3616L23.9587 43.098L24.6093 43.5399L25.1712 42.7127ZM27.9851 35.2089L28.9214 35.56L28.9214 35.56L27.9851 35.2089ZM27.7625 34.7194L28.1136 33.783L28.1135 33.783L27.7625 34.7194ZM27.273 34.9419L26.3368 34.5903L26.3366 34.5907L27.273 34.9419ZM24.5817 42.1188L23.752 42.6771L24.8361 44.2884L25.518 42.47L24.5817 42.1188ZM24.4373 41.8763L25.3304 41.4265L25.3302 41.426L24.4373 41.8763ZM24.3109 40.178L25.2606 40.4909L25.2606 40.4909L24.3109 40.178ZM28.493 27.4832L29.3792 27.0199L28.2833 24.9238L27.5432 27.1703L28.493 27.4832ZM31.3425 29.7387L32.3108 29.489L32.1626 28.9146L31.5875 28.7692L31.3425 29.7387ZM31.8225 31.5999L32.7722 31.9129L32.864 31.6343L32.7908 31.3502L31.8225 31.5999ZM39.2503 42.1444L40.1114 42.6529L40.1116 42.6525L39.2503 42.1444ZM38.7733 42.7087L37.8131 42.9882L38.2448 44.4708L39.4211 43.4705L38.7733 42.7087ZM35.7776 32.4195L36.7377 32.1399L36.7377 32.1399L35.7776 32.4195ZM35.3061 32.1606L35.0287 31.1999L35.0265 31.2005L35.3061 32.1606ZM35.0473 32.632L34.087 32.9111L34.0871 32.9115L35.0473 32.632ZM38.0961 43.1041L38.4372 44.0441L39.3182 43.7244L39.0562 42.8245L38.0961 43.1041ZM37.889 43.1683L37.6399 42.1999L37.6396 42.1999L37.889 43.1683ZM35.1789 41.5692L36.1472 41.3196L36.1472 41.3195L35.1789 41.5692ZM31.4267 27.0207L30.4584 27.2704L30.4584 27.2704L31.4267 27.0207ZM33.0262 24.3103L32.7767 23.342L32.7765 23.342L33.0262 24.3103ZM35.7364 25.9094L36.7047 25.6597L36.7047 25.6595L35.7364 25.9094ZM39.4884 40.4582L38.5201 40.7079L38.5201 40.7079L39.4884 40.4582ZM41.193 40.0186L37.6817 26.403L35.7451 26.9024L39.2564 40.518L41.193 40.0186ZM37.6748 26.9279C37.8141 26.4415 37.8856 25.9373 37.8856 25.4272H35.8856C35.8856 25.7499 35.8404 26.0689 35.7521 26.3775L37.6748 26.9279ZM37.8856 25.4272L37.8854 13.7049L35.8854 13.7049L35.8856 25.4273L37.8856 25.4272ZM37.8854 13.7049C37.8854 10.6995 35.4419 8.25598 32.4366 8.25598V10.256C34.3373 10.256 35.8854 11.804 35.8854 13.7049H37.8854ZM32.4366 8.25598C29.8788 8.25598 27.6944 10.0129 27.1288 12.4768L29.0781 12.9243C29.4358 11.3662 30.8138 10.256 32.4366 10.256V8.25598ZM27.9074 11.7199L20.3857 13.2233L20.7777 15.1846L28.2994 13.6811L27.9074 11.7199ZM20.3858 13.2233C19.5342 13.3935 18.7953 13.8882 18.3134 14.6108L19.9774 15.7204C20.1649 15.4391 20.4463 15.2508 20.7777 15.1846L20.3858 13.2233ZM18.3133 14.6109C17.8317 15.3333 17.6589 16.2055 17.8291 17.0572L19.7903 16.6655C19.7241 16.3338 19.7899 16.0016 19.9774 15.7203L18.3133 14.6109ZM17.8291 17.0573C18.0029 17.9269 18.5165 18.6557 19.2072 19.1211L20.3247 17.4625C20.0527 17.2792 19.8565 16.9965 19.7903 16.6654L17.8291 17.0573ZM19.4871 17.3314C18.5357 17.6076 17.7185 18.2057 17.1655 19.0382L18.8313 20.1449C19.1227 19.7064 19.5471 19.3966 20.0447 19.2521L19.4871 17.3314ZM17.1655 19.0382L2.91007 40.4964L4.57596 41.6031L18.8313 20.1449L17.1655 19.0382ZM2.91012 40.4964C2.48821 41.1313 2.66104 41.988 3.29588 42.4098L4.40273 40.744C4.68775 40.9334 4.76539 41.3181 4.57592 41.6032L2.91012 40.4964ZM3.29673 42.4104C3.52985 42.565 3.79603 42.6405 4.05938 42.6405V40.6405C4.17814 40.6405 4.29831 40.6748 4.40188 40.7435L3.29673 42.4104ZM4.05938 42.6405C4.50314 42.6405 4.94324 42.4248 5.20954 42.0237L3.54336 40.9174C3.6633 40.7368 3.86183 40.6405 4.05938 40.6405V42.6405ZM5.2094 42.0239L19.4649 20.5657L17.799 19.459L3.54351 40.9172L5.2094 42.0239ZM19.4649 20.5656C19.6784 20.2441 19.9999 20.0281 20.3782 19.9518L19.9828 17.9913C19.0845 18.1725 18.306 18.6956 17.7989 19.4591L19.4649 20.5656ZM20.3781 19.9518C20.7569 19.8755 21.1368 19.9501 21.4584 20.1637L22.565 18.4978C21.8018 17.9908 20.8817 17.8101 19.983 17.9913L20.3781 19.9518ZM21.4583 20.1637C21.7799 20.3773 21.9959 20.6988 22.0723 21.0773L24.0328 20.6816C23.8515 19.7834 23.3284 19.005 22.5651 18.4978L21.4583 20.1637ZM22.0723 21.0772C22.1486 21.4556 22.0741 21.8356 21.8605 22.1571L23.5262 23.264C24.0336 22.5005 24.214 21.5801 24.0328 20.6818L22.0723 21.0772ZM21.8604 22.1571C21.4385 22.7921 21.6114 23.6488 22.2462 24.0706L23.3531 22.4048C23.6381 22.5942 23.7157 22.9788 23.5262 23.2639L21.8604 22.1571ZM22.2464 24.0707C22.8814 24.4924 23.738 24.3197 24.1598 23.6845L22.4938 22.5781C22.6831 22.2929 23.0679 22.2154 23.3529 22.4046L22.2464 24.0707ZM24.1597 23.6846C24.7793 22.7521 24.9995 21.6288 24.7783 20.5314L22.8177 20.9267C22.9342 21.5042 22.8198 22.0872 22.4938 22.578L24.1597 23.6846ZM24.7783 20.5313C24.5569 19.4339 23.9183 18.4838 22.9858 17.8644L21.8791 19.5303C22.3699 19.8563 22.7013 20.3494 22.8178 20.9268L24.7783 20.5313ZM22.9859 17.8644C22.8425 17.7692 22.698 17.6868 22.5553 17.6145L21.6507 19.3982C21.7332 19.44 21.8091 19.4837 21.879 19.5302L22.9859 17.8644ZM22.299 19.4869L28.1836 18.3108L27.7917 16.3496L21.907 17.5257L22.299 19.4869ZM26.9877 17.3302V25.4272H28.9877V17.3302H26.9877ZM26.9877 25.4272C26.9877 25.7997 27.0267 26.1628 27.0981 26.5131L29.0578 26.1136C29.012 25.8889 28.9877 25.6596 28.9877 25.4272H26.9877ZM27.1281 26.0004L22.6389 39.6271L24.5384 40.2529L29.0277 26.6262L27.1281 26.0004ZM22.6389 39.6269C22.3062 40.6363 22.3869 41.7202 22.8654 42.669L24.6512 41.7685C24.4116 41.2934 24.3717 40.7586 24.5384 40.2531L22.6389 39.6269ZM22.8654 42.6691C23.344 43.6179 24.1675 44.3271 25.1769 44.6597L25.8027 42.7601C25.2971 42.5935 24.8908 42.2436 24.6511 41.7684L22.8654 42.6691ZM25.1769 44.6597C25.5883 44.7952 26.0079 44.8601 26.4219 44.8601V42.8601C26.2177 42.8601 26.0095 42.8282 25.8026 42.7601L25.1769 44.6597ZM26.4219 44.8601C28.0936 44.86 29.6567 43.7991 30.2095 42.1217L28.3101 41.4956C28.0361 42.3269 27.2581 42.86 26.4218 42.8601L26.4219 44.8601ZM30.2096 42.1216L33.1238 33.2759L31.2243 32.6501L28.31 41.4957L30.2096 42.1216ZM31.2057 33.2127L33.4744 42.0089L35.411 41.5094L33.1424 32.7133L31.2057 33.2127ZM33.4744 42.0088C33.9282 43.7691 35.5139 44.9999 37.3317 44.9999V42.9999C36.4277 42.9999 35.6375 42.3879 35.411 41.5095L33.4744 42.0088ZM37.3317 44.9999C37.6676 44.9999 38.0031 44.9571 38.3292 44.8729L37.8291 42.9364C37.6653 42.9787 37.4978 42.9999 37.3317 42.9999V44.9999ZM38.3289 44.873C39.3579 44.6076 40.2265 43.9542 40.7665 43.0389L39.044 42.0226C38.7736 42.4809 38.345 42.8034 37.8295 42.9363L38.3289 44.873ZM40.7664 43.039C41.3065 42.1238 41.4585 41.0475 41.193 40.0184L39.2564 40.5181C39.3894 41.0334 39.3144 41.5643 39.044 42.0225L40.7664 43.039ZM20.6103 16.1421C20.685 16.03 20.7944 15.9568 20.9265 15.9304L20.5351 13.9691C19.8825 14.0993 19.3151 14.4791 18.9461 15.0329L20.6103 16.1421ZM20.9268 15.9304L31.5484 13.8074L31.1564 11.8462L20.5348 13.9692L20.9268 15.9304ZM31.5483 13.8074C31.5824 13.8006 31.6162 13.7973 31.6479 13.7973V11.7973C31.4826 11.7973 31.3176 11.8139 31.1564 11.8461L31.5483 13.8074ZM31.6479 13.7973C31.8801 13.7973 32.0879 13.9662 32.1343 14.1983L34.0955 13.8065C33.8629 12.6422 32.8366 11.7973 31.6479 11.7973V13.7973ZM32.1343 14.1983C32.1879 14.4666 32.012 14.7307 31.7433 14.7844L32.1353 16.7456C33.4867 16.4754 34.3656 15.1582 34.0955 13.8064L32.1343 14.1983ZM31.7433 14.7844L21.122 16.9072L21.514 18.8684L32.1353 16.7456L31.7433 14.7844ZM21.1221 16.9072C21.0881 16.914 21.0542 16.9173 21.0224 16.9173V18.9173C21.1877 18.9173 21.3528 18.9006 21.514 18.8684L21.1221 16.9072ZM21.0224 16.9173C20.7899 16.9173 20.5824 16.7484 20.5362 16.5167L18.5749 16.9083C18.8074 18.0728 19.8338 18.9173 21.0224 18.9173V16.9173ZM20.5362 16.5167C20.5097 16.384 20.5354 16.2545 20.6102 16.1422L18.9462 15.0327C18.5771 15.5863 18.4446 16.2558 18.5749 16.9082L20.5362 16.5167ZM32.2844 17.4912C34.0471 17.139 35.1935 15.4202 34.8414 13.6574L32.8802 14.0491C33.0159 14.7288 32.5721 15.3941 31.8925 15.5299L32.2844 17.4912ZM34.8414 13.6571C34.5376 12.1382 33.1975 11.0368 31.648 11.0368V13.0368C32.2419 13.0368 32.763 13.4631 32.8802 14.0493L34.8414 13.6571ZM31.648 11.0368C31.4334 11.0368 31.218 11.0582 31.0072 11.1004L31.3996 13.0615C31.4821 13.045 31.5659 13.0368 31.648 13.0368V11.0368ZM31.0074 11.1003L28.743 11.553L29.135 13.5142L31.3994 13.0616L31.0074 11.1003ZM29.8881 12.8484C30.247 11.7666 31.2583 11.0166 32.4367 11.0166V9.01655C30.3884 9.01655 28.6176 10.3264 27.9898 12.2187L29.8881 12.8484ZM32.4367 11.0166C33.9181 11.0166 35.125 12.2235 35.125 13.705H37.125C37.125 11.1189 35.0227 9.01655 32.4367 9.01655V11.0166ZM35.125 13.705L35.1252 24.9009L37.1252 24.9009L37.125 13.705L35.125 13.705ZM36.9772 24.3773C36.2672 23.222 34.996 22.4788 33.5837 22.4788V24.4788C34.285 24.4788 34.9186 24.8475 35.2732 25.4244L36.9772 24.3773ZM33.5837 22.4788C33.2479 22.4788 32.9126 22.5217 32.5868 22.6056L33.086 24.5423C33.2503 24.5 33.4178 24.4788 33.5837 24.4788V22.4788ZM32.5867 22.6057C30.4577 23.1546 29.1731 25.3314 29.7222 27.4604L31.6588 26.961C31.3857 25.9017 32.0264 24.8155 33.0861 24.5423L32.5867 22.6057ZM29.7222 27.4604L30.1507 29.1222L32.0874 28.6228L31.6588 26.961L29.7222 27.4604ZM31.4761 27.9384C30.4529 27.5474 29.7482 26.5526 29.7482 25.4274H27.7482C27.7482 27.3946 28.9766 29.1242 30.762 29.8066L31.4761 27.9384ZM29.7482 25.4274V17.1783H27.7482V25.4274H29.7482ZM28.9443 18.1589L32.2845 17.4911L31.8924 15.5299L28.5522 16.1977L28.9443 18.1589ZM27.5877 41.2576C27.3765 41.8985 26.6813 42.249 26.0406 42.0379L25.4148 43.9375C27.1046 44.4942 28.9302 43.5734 29.4872 41.8837L27.5877 41.2576ZM26.0406 42.0379C25.9323 42.0022 25.8295 41.951 25.7331 41.8855L24.6093 43.5399C24.8527 43.7053 25.1222 43.8411 25.4148 43.9375L26.0406 42.0379ZM26.1075 43.0639L28.9214 35.56L27.0487 34.8578L24.2348 42.3616L26.1075 43.0639ZM28.9214 35.56C29.1889 34.8465 28.8277 34.0507 28.1136 33.783L27.4115 35.6557C27.0907 35.5354 26.9287 35.178 27.0487 34.8579L28.9214 35.56ZM28.1135 33.783C27.4001 33.5156 26.6047 33.8769 26.3368 34.5903L28.2091 35.2934C28.0889 35.6137 27.732 35.7758 27.4116 35.6558L28.1135 33.783ZM26.3366 34.5907L23.6453 41.7677L25.518 42.47L28.2093 35.293L26.3366 34.5907ZM25.4114 41.5606C25.373 41.5037 25.348 41.4614 25.3304 41.4265L23.5442 42.3261C23.6121 42.4611 23.6858 42.5787 23.752 42.6771L25.4114 41.5606ZM25.3302 41.426C25.1821 41.1323 25.1576 40.8038 25.2606 40.4909L23.3611 39.8651C23.0921 40.6813 23.1573 41.559 23.5444 42.3266L25.3302 41.426ZM25.2606 40.4909L29.4428 27.7961L27.5432 27.1703L23.3611 39.8651L25.2606 40.4909ZM27.6068 27.9466C28.3091 29.2899 29.5606 30.3198 31.0974 30.7082L31.5875 28.7692C30.6199 28.5246 29.8259 27.8745 29.3792 27.0199L27.6068 27.9466ZM30.3741 29.9885L30.8541 31.8497L32.7908 31.3502L32.3108 29.489L30.3741 29.9885ZM30.8727 31.287L27.5877 41.2578L29.4872 41.8836L32.7722 31.9129L30.8727 31.287ZM38.3892 41.636C38.3205 41.7524 38.2319 41.8564 38.1255 41.9469L39.4211 43.4705C39.6877 43.2437 39.9237 42.9708 40.1114 42.6529L38.3892 41.636ZM39.7334 42.4292L36.7377 32.1399L34.8175 32.699L37.8131 42.9882L39.7334 42.4292ZM36.7377 32.1399C36.5242 31.4066 35.7582 30.9893 35.0287 31.1999L35.5835 33.1214C35.2581 33.2154 34.9136 33.0292 34.8175 32.699L36.7377 32.1399ZM35.0265 31.2005C34.2946 31.4136 33.8743 32.1796 34.087 32.9111L36.0075 32.3528C36.103 32.6812 35.9144 33.025 35.5856 33.1208L35.0265 31.2005ZM34.0871 32.9115L37.1359 43.3836L39.0562 42.8245L36.0074 32.3524L34.0871 32.9115ZM37.7549 42.1641C37.7156 42.1783 37.6774 42.1902 37.6399 42.1999L38.1382 44.1368C38.2418 44.1101 38.3414 44.0789 38.4372 44.0441L37.7549 42.1641ZM37.6396 42.1999C37.5368 42.2264 37.4331 42.2394 37.3316 42.2394V44.2394C37.6038 44.2394 37.8751 44.2045 38.1385 44.1367L37.6396 42.1999ZM37.3316 42.2394C36.7748 42.2394 36.2871 41.8623 36.1472 41.3196L34.2105 41.8189C34.5777 43.243 35.8605 44.2394 37.3316 44.2394V42.2394ZM36.1472 41.3195L32.395 26.7709L30.4584 27.2704L34.2105 41.819L36.1472 41.3195ZM32.3951 26.771C32.2267 26.1179 32.6222 25.4472 33.2759 25.2786L32.7765 23.342C31.0536 23.7863 30.0141 25.5473 30.4584 27.2704L32.3951 26.771ZM33.2758 25.2787C33.3781 25.2523 33.4818 25.2393 33.5835 25.2393V23.2393C33.3117 23.2393 33.0403 23.274 32.7767 23.342L33.2758 25.2787ZM33.5835 25.2393C34.1403 25.2393 34.6281 25.6164 34.7681 26.1592L36.7047 25.6595C36.3373 24.2356 35.0545 23.2393 33.5835 23.2393V25.2393ZM34.7681 26.1591L38.5201 40.7079L40.4567 40.2085L36.7047 25.6597L34.7681 26.1591ZM38.5201 40.7079C38.6023 41.0267 38.5562 41.3529 38.389 41.6363L40.1116 42.6525C40.5483 41.9122 40.6713 41.0408 40.4567 40.2085L38.5201 40.7079Z" fill="#F4C1C4" mask="url(#path-4-inside-2)"/>
<path d="M34.6075 21.7677C34.8176 21.7677 34.9878 21.5975 34.9878 21.3875V17.0933C34.9878 16.8833 34.8176 16.713 34.6075 16.713C34.3975 16.713 34.2273 16.8833 34.2273 17.0933V21.3875C34.2273 21.5975 34.3975 21.7677 34.6075 21.7677Z" fill="#F4C1C4"/>
</svg>
