<svg width="48" height="48" viewBox="0 0 48 48" fill="none" xmlns="http://www.w3.org/2000/svg">
<path d="M45.6 11.2H44V7.20005C44 5.87685 42.9232 4.80005 41.6 4.80005H38.4C37.0768 4.80005 36 5.87685 36 7.20005V13.6H34.1168L33.9408 13.152C33.0928 10.9944 31.0472 9.60005 28.7288 9.60005H28.6528C28.3216 8.67125 27.4416 8.00005 26.4 8.00005C25.7832 8.00005 25.2256 8.24085 24.8 8.62405C24.3744 8.24005 23.8168 8.00005 23.2 8.00005C22.5832 8.00005 22.0256 8.24085 21.6 8.62405C21.1744 8.24005 20.6168 8.00005 20 8.00005C19.3832 8.00005 18.8256 8.24085 18.4 8.62405C17.9744 8.24005 17.4168 8.00005 16.8 8.00005C15.4768 8.00005 14.4 9.07685 14.4 10.4V13.6H12V7.20005C12 5.87685 10.9232 4.80005 9.6 4.80005H6.4C5.0768 4.80005 4 5.87685 4 7.20005V11.2H2.4C1.0768 11.2 0 12.2768 0 13.6V21.6C0 22.9232 1.0768 24 2.4 24H4V28C4 29.3232 5.0768 30.4 6.4 30.4H9.6C10.9232 30.4 12 29.3232 12 28V21.6H13.8144L14.4376 23.572C14.4656 23.6616 14.5096 23.7456 14.5672 23.8208L16.7024 26.5832L15.3344 40.956C15.2792 41.5296 15.4696 42.1032 15.8576 42.5296C16.2456 42.9552 16.7976 43.2 17.3744 43.2H28.2192C28.7976 43.2 29.3512 42.9544 29.7384 42.5256C30.1264 42.0968 30.316 41.5216 30.2584 40.9456L28.8608 26.9688C28.8456 26.8224 28.904 26.6784 29.0152 26.5832L33.4048 22.8208C33.7888 22.4912 34.0584 22.0656 34.2224 21.6H36V28C36 29.3232 37.0768 30.4 38.4 30.4H41.6C42.9232 30.4 44 29.3232 44 28V24H45.6C46.9232 24 48 22.9232 48 21.6V13.6C48 12.2768 46.9232 11.2 45.6 11.2ZM4 22.4H2.4C1.9584 22.4 1.6 22.0408 1.6 21.6V13.6C1.6 13.1592 1.9584 12.8 2.4 12.8H4V22.4ZM10.4 14.4V20.8V28C10.4 28.4408 10.0416 28.8 9.6 28.8H6.4C5.9584 28.8 5.6 28.4408 5.6 28V23.2V12V7.20005C5.6 6.75925 5.9584 6.40005 6.4 6.40005H9.6C10.0416 6.40005 10.4 6.75925 10.4 7.20005V14.4ZM25.6 10.4C25.6 9.95925 25.9584 9.60005 26.4 9.60005C26.8416 9.60005 27.2 9.95925 27.2 10.4V14.4V15.1144C27.2 15.4184 27.0512 15.6928 26.8352 15.8528C26.812 15.8688 26.7904 15.8864 26.7656 15.9C26.7232 15.9248 26.6768 15.9384 26.6304 15.9528C26.5792 15.9688 26.5272 15.98 26.472 15.9848C26.4072 15.9896 26.344 15.9848 26.2816 15.9752C26.2352 15.968 26.1888 15.9624 26.1456 15.948C26.0816 15.9264 26.0224 15.8912 25.9648 15.8528C25.9304 15.8296 25.8928 15.812 25.8624 15.784C25.8056 15.732 25.764 15.668 25.7248 15.6032C25.708 15.5752 25.684 15.5528 25.6704 15.5224C25.6264 15.4224 25.6 15.3128 25.6 15.2V10.4ZM22.4 10.4C22.4 9.95925 22.7584 9.60005 23.2 9.60005C23.6416 9.60005 24 9.95925 24 10.4V15.2C24 15.6408 23.6416 16 23.2 16C22.7584 16 22.4 15.6408 22.4 15.2V10.4ZM19.2 10.4C19.2 9.95925 19.5584 9.60005 20 9.60005C20.4416 9.60005 20.8 9.95925 20.8 10.4V15.2C20.8 15.6408 20.4416 16 20 16C19.5584 16 19.2 15.6408 19.2 15.2V10.4ZM16 14.4V10.4C16 9.95925 16.3584 9.60005 16.8 9.60005C17.2416 9.60005 17.6 9.95925 17.6 10.4V15.2C17.6 15.3128 17.5736 15.4224 17.5288 15.5232C17.5152 15.5536 17.4912 15.576 17.4744 15.604C17.4352 15.6688 17.3936 15.732 17.3368 15.7848C17.3072 15.812 17.2696 15.8304 17.236 15.8528C17.1776 15.8912 17.1184 15.9272 17.0528 15.9488C17.0112 15.9632 16.9656 15.968 16.9216 15.9752C16.8576 15.9848 16.7936 15.9904 16.7272 15.9848C16.6728 15.98 16.6208 15.9688 16.5704 15.9528C16.5232 15.9376 16.4768 15.924 16.4336 15.8992C16.4088 15.8864 16.388 15.8688 16.3656 15.8528C16.1496 15.6928 16 15.4176 16 15.1136V14.4ZM12 20V15.2H14.4C14.4 16.0784 14.8792 16.8392 15.5848 17.2576C15.628 17.284 15.6728 17.3056 15.7176 17.3296C15.7896 17.3664 15.8608 17.4032 15.936 17.432C16.02 17.4656 16.108 17.4896 16.1968 17.5128C16.2496 17.5264 16.3008 17.544 16.3552 17.5544C16.372 17.5576 16.3864 17.564 16.4032 17.5672C16.4592 17.5768 16.5144 17.5712 16.5704 17.5768C16.6472 17.584 16.7216 17.6 16.8 17.6C16.8232 17.6 16.8448 17.5936 16.8672 17.5928C16.9408 17.5904 17.012 17.5792 17.084 17.5712C17.18 17.56 17.2744 17.5472 17.3664 17.5248C17.4352 17.508 17.5008 17.4848 17.568 17.4624C17.6576 17.432 17.7456 17.3984 17.8304 17.3584C17.8952 17.3272 17.9576 17.292 18.02 17.2552C18.1 17.2072 18.176 17.156 18.2504 17.0992C18.284 17.0736 18.3224 17.056 18.3544 17.0288C18.3704 17.0152 18.3856 17.0024 18.4008 16.9888C18.4472 17.0304 18.5016 17.0632 18.5512 17.1008C18.6008 17.1392 18.6488 17.1784 18.7016 17.2128C18.7768 17.2616 18.8576 17.3008 18.9384 17.3416C18.992 17.368 19.0424 17.3984 19.0976 17.4208C19.1904 17.4584 19.2888 17.4848 19.3864 17.5104C19.436 17.5232 19.4824 17.5424 19.5336 17.5528C19.6848 17.5824 19.84 17.6 20 17.6C20.16 17.6 20.3152 17.5824 20.4664 17.5528C20.5184 17.5424 20.5656 17.5232 20.616 17.5096C20.7128 17.4832 20.8104 17.4584 20.9024 17.4208C20.9592 17.3976 21.0104 17.3672 21.0648 17.34C21.1448 17.3 21.2248 17.2608 21.2992 17.2128C21.3528 17.1784 21.4008 17.1384 21.4504 17.1C21.5 17.0624 21.5536 17.0296 21.6 16.988C21.6464 17.0296 21.7 17.0616 21.7496 17.1C21.8 17.1384 21.848 17.1792 21.9016 17.2136C21.976 17.2616 22.056 17.3008 22.136 17.3408C22.1904 17.368 22.2416 17.3984 22.2984 17.4216C22.3904 17.4592 22.4872 17.4848 22.5848 17.5104C22.6352 17.524 22.6832 17.5432 22.7344 17.5536C22.8848 17.5824 23.04 17.6 23.2 17.6C23.36 17.6 23.5152 17.5824 23.6664 17.5528C23.7168 17.5424 23.764 17.524 23.8136 17.5104C23.912 17.484 24.0096 17.4584 24.1024 17.4208C24.1584 17.3984 24.2088 17.368 24.2624 17.3408C24.3432 17.3008 24.4232 17.2608 24.4984 17.212C24.5512 17.1776 24.5984 17.1384 24.6488 17.1C24.6984 17.0624 24.7528 17.0296 24.7992 16.988C24.8144 17.0016 24.8296 17.0152 24.8456 17.028C24.8776 17.0552 24.916 17.0728 24.9488 17.0984C25.0232 17.1552 25.1 17.2072 25.1816 17.256C25.2424 17.292 25.3032 17.3264 25.3672 17.3568C25.4552 17.3992 25.5456 17.4328 25.6392 17.4648C25.7024 17.4864 25.7648 17.508 25.8296 17.524C25.9272 17.548 26.0272 17.5608 26.128 17.5728C26.1952 17.5808 26.2608 17.5912 26.3288 17.5928C26.3528 17.5936 26.3752 17.6 26.4 17.6C26.48 17.6 26.556 17.584 26.6336 17.576C26.688 17.5712 26.7424 17.576 26.7976 17.5672C26.816 17.564 26.8328 17.5576 26.8512 17.5544C26.8872 17.5472 26.9216 17.5368 26.9568 17.528C27.0592 17.5032 27.1584 17.4736 27.2544 17.4352C27.3072 17.4152 27.3584 17.3936 27.4088 17.3696C27.4648 17.3424 27.5192 17.312 27.5728 17.2808C28.1576 16.9496 28.5928 16.3888 28.7408 15.7144C28.776 15.804 28.8 15.8992 28.8 16V18.8688L27.6688 20H12ZM32.8 20.6568C32.8 21.0224 32.6408 21.368 32.364 21.6064L27.9752 25.368C27.4664 25.804 27.2024 26.4616 27.2688 27.1288L28.6664 41.1056C28.6832 41.2792 28.6024 41.3976 28.552 41.4528C28.5024 41.5072 28.392 41.6 28.2184 41.6H17.3744C17.2016 41.6 17.0912 41.508 17.0416 41.4528C16.992 41.3976 16.9104 41.28 16.9264 41.1072L18.3248 26.4192C18.344 26.2168 18.2856 26.0152 18.1616 25.8536L15.92 22.9544L15.492 21.6H27.6688C28.0896 21.6 28.5024 21.4296 28.8 21.1312L29.9312 20C30.2336 19.6976 30.4 19.296 30.4 18.8688V16C30.4 14.9584 29.7288 14.0784 28.8 13.7472V11.2008C30.4264 11.2288 31.8544 12.2176 32.4512 13.7368L32.752 14.4928C32.7832 14.556 32.8 14.6256 32.8 14.6944V20.6568ZM36 20H34.4V15.2H36V20ZM42.4 12V23.2V28C42.4 28.4408 42.0416 28.8 41.6 28.8H38.4C37.9584 28.8 37.6 28.4408 37.6 28V20.8V14.4V7.20005C37.6 6.75925 37.9584 6.40005 38.4 6.40005H41.6C42.0416 6.40005 42.4 6.75925 42.4 7.20005V12ZM46.4 21.6C46.4 22.0408 46.0416 22.4 45.6 22.4H44V12.8H45.6C46.0416 12.8 46.4 13.1592 46.4 13.6V21.6Z" fill="#73D6C4"/>
</svg>
