<svg width="193" height="201" viewBox="0 0 193 201" fill="none" xmlns="http://www.w3.org/2000/svg">
<mask id="mask0" mask-type="alpha" maskUnits="userSpaceOnUse" x="0" y="0" width="193" height="201">
<path d="M192.561 96.2808C192.561 43.1064 149.455 0 96.2807 0C43.1063 0 0 43.1063 0 96.2807V100.557C0 155.909 44.8715 200.78 100.223 200.78H192.561V96.2808Z" fill="#E3F7F3"/>
</mask>
<g mask="url(#mask0)">
<path d="M192.561 96.2808C192.561 43.1064 149.455 0 96.2807 0C43.1063 0 0 43.1063 0 96.2807V100.557C0 155.909 44.8715 200.78 100.223 200.78H192.561V96.2808Z" fill="#E3F7F3"/>
<path d="M176.561 211.281C176.561 158.106 133.455 115 80.2807 115C27.1063 115 -16 158.106 -16 211.281V215.557C-16 270.909 28.8715 315.78 84.2232 315.78H176.561V211.281Z" fill="#E3F7F3" style="mix-blend-mode:multiply"/>
</g>
</svg>
