<svg width="155" height="56" viewBox="0 0 155 56" fill="none" xmlns="http://www.w3.org/2000/svg">
<path d="M25.8948 25.0526C25.8948 32.2033 20.098 38 12.9474 38V38C5.79677 38 3.8147e-05 32.2033 3.8147e-05 25.0526V24.4775C3.8147e-05 17.0341 6.03413 11 13.4776 11H25.8948V25.0526Z" fill="#E3F7F3"/>
<path d="M14.456 24.528H9.864V23.44C9.864 22.24 10.264 21.296 11.672 21.296H12.04V20.32H11.528C9.576 20.32 8.84 21.68 8.84 23.552V24.528H7.368V25.408H8.84V32H9.864V25.408H13.432V32H14.456V24.528ZM13.944 21.04C13.528 21.04 13.16 21.344 13.16 21.776C13.16 22.192 13.528 22.496 13.944 22.496C14.392 22.496 14.744 22.192 14.744 21.776C14.744 21.344 14.392 21.04 13.944 21.04ZM22.7584 24.528H16.5344V25.504H21.2544L16.3904 31.2V32H22.7584V31.024H17.8464L22.7584 25.344V24.528ZM25.4044 22.496C25.8524 22.496 26.2044 22.192 26.2044 21.776C26.2044 21.344 25.8524 21.04 25.4044 21.04C24.9884 21.04 24.6204 21.344 24.6204 21.776C24.6204 22.192 24.9884 22.496 25.4044 22.496ZM22.5244 35.632H23.3244C25.2764 35.632 25.9164 34.272 25.9164 32.448V24.528H24.8924V32.448C24.9084 33.568 24.6044 34.656 23.2444 34.656H22.5244V35.632ZM31.8751 32.16C34.0031 32.16 35.7951 30.608 35.7951 28.24C35.7951 25.872 34.0031 24.368 31.8751 24.368C29.7471 24.368 27.9711 25.872 27.9711 28.24C27.9711 30.608 29.7471 32.16 31.8751 32.16ZM31.8751 31.184C30.2911 31.184 28.9951 30.016 28.9951 28.24C28.9951 26.48 30.2911 25.344 31.8751 25.344C33.4431 25.344 34.7711 26.48 34.7711 28.24C34.7711 30.016 33.4431 31.184 31.8751 31.184ZM40.9183 24.528H39.2063V21.552H38.1983V24.528H36.8383V25.408H38.1983V32H39.2063V25.408H40.9183V24.528ZM49.3029 28.24C49.3029 25.872 47.7509 24.368 45.6229 24.368C43.5109 24.368 41.8149 25.872 41.8149 28.24C41.8149 30.608 43.5109 32.16 45.6229 32.16C47.0309 32.16 48.3109 31.488 48.9669 30.288L48.0869 29.904C47.5909 30.72 46.6789 31.184 45.6549 31.184C44.1509 31.184 43.0309 30.288 42.8549 28.688H49.2869C49.3029 28.544 49.3029 28.384 49.3029 28.24ZM42.8709 27.808C43.0629 26.208 44.1509 25.344 45.6229 25.344C47.0789 25.344 48.1509 26.256 48.2949 27.808H42.8709ZM54.6716 24.368C53.5036 24.368 52.7036 25.088 52.3356 26.352V24.528H51.2956V32H52.3356V29.184C52.3356 27.344 52.8796 25.36 54.6556 25.36C54.9276 25.36 55.2796 25.408 55.6636 25.568L55.8556 24.592C55.5676 24.448 55.0876 24.368 54.6716 24.368ZM63.161 24.528V25.968C62.601 24.96 61.449 24.368 60.185 24.368C58.089 24.368 56.393 25.984 56.393 28.256C56.393 30.528 58.105 32.16 60.185 32.16C61.433 32.16 62.601 31.568 63.161 30.544V32H64.185V24.528H63.161ZM60.265 31.184C58.697 31.184 57.417 29.904 57.417 28.24C57.417 26.592 58.697 25.344 60.265 25.344C61.753 25.344 63.161 26.48 63.161 28.288C63.161 30.016 61.817 31.184 60.265 31.184ZM70.7488 24.368C69.5008 24.368 68.3168 24.976 67.7728 26V24.528H66.7488V35.632H67.7728V30.544C68.3328 31.568 69.4848 32.16 70.7488 32.16C72.8448 32.16 74.5408 30.544 74.5408 28.272C74.5408 26 72.8448 24.368 70.7488 24.368ZM70.6688 31.184C69.1808 31.184 67.7728 30.048 67.7728 28.24C67.7728 26.512 69.1168 25.344 70.6688 25.344C72.2528 25.344 73.5328 26.624 73.5328 28.288C73.5328 29.936 72.2528 31.184 70.6688 31.184ZM77.1045 22.496C77.5525 22.496 77.9045 22.192 77.9045 21.776C77.9045 21.344 77.5525 21.04 77.1045 21.04C76.6885 21.04 76.3205 21.344 76.3205 21.776C76.3205 22.192 76.6885 22.496 77.1045 22.496ZM76.5925 32H77.6165V24.528H76.5925V32ZM86.4266 24.528V25.968C85.8666 24.96 84.7146 24.368 83.4506 24.368C81.3546 24.368 79.6586 25.984 79.6586 28.256C79.6586 30.528 81.3706 32.16 83.4506 32.16C84.6986 32.16 85.8666 31.568 86.4266 30.544V32H87.4506V24.528H86.4266ZM83.5306 31.184C81.9626 31.184 80.6826 29.904 80.6826 28.24C80.6826 26.592 81.9626 25.344 83.5306 25.344C85.0186 25.344 86.4266 26.48 86.4266 28.288C86.4266 30.016 85.0826 31.184 83.5306 31.184ZM96.9584 32L93.2144 27.792L96.2544 24.528H93.8384L91.6944 26.912V20.528H89.8384V32H91.6944V28.608L94.6064 32H96.9584ZM103.175 24.528V25.52C102.663 24.736 101.623 24.368 100.679 24.368C98.7114 24.368 97.0154 25.856 97.0154 28.256C97.0154 30.64 98.7274 32.16 100.695 32.16C101.607 32.16 102.663 31.792 103.175 30.992V32H105.031V24.528H103.175ZM100.983 30.416C99.8314 30.416 98.8874 29.488 98.8874 28.24C98.8874 26.992 99.8314 26.096 100.983 26.096C102.055 26.096 103.143 26.928 103.143 28.24C103.143 29.552 102.119 30.416 100.983 30.416ZM111.357 24.528H109.773V21.776H107.917V24.528H106.573V26.016H107.917V32H109.773V26.016H111.357V24.528ZM116.139 32.16C118.267 32.16 120.123 30.608 120.123 28.24C120.123 25.872 118.267 24.368 116.139 24.368C114.011 24.368 112.171 25.872 112.171 28.24C112.171 30.608 114.011 32.16 116.139 32.16ZM116.139 30.432C114.987 30.432 114.043 29.552 114.043 28.24C114.043 26.96 114.987 26.096 116.139 26.096C117.291 26.096 118.251 26.96 118.251 28.24C118.251 29.552 117.291 30.432 116.139 30.432ZM130.753 24.528L129.169 29.344L127.585 24.528H125.937L124.353 29.344L122.769 24.528H120.769L123.537 32H125.089L126.753 26.896L128.497 32H130.065L132.753 24.528H130.753ZM134.938 23.024C135.61 23.024 136.138 22.528 136.138 21.888C136.138 21.232 135.61 20.752 134.938 20.752C134.282 20.752 133.722 21.232 133.722 21.888C133.722 22.528 134.282 23.024 134.938 23.024ZM134.01 32H135.866V24.528H134.01V32ZM141.673 32.144C142.969 32.144 144.025 31.568 144.713 30.704L143.385 29.664C143.001 30.128 142.361 30.416 141.705 30.416C140.409 30.416 139.481 29.504 139.481 28.256C139.481 26.992 140.409 26.096 141.705 26.096C142.361 26.096 143.001 26.384 143.385 26.848L144.713 25.808C144.025 24.928 142.969 24.368 141.673 24.368C139.513 24.368 137.609 25.888 137.609 28.256C137.609 30.624 139.513 32.144 141.673 32.144ZM153.431 28.192C153.431 25.856 151.751 24.368 149.607 24.368C147.479 24.368 145.687 25.872 145.687 28.256C145.687 30.592 147.383 32.16 149.623 32.16C150.983 32.16 152.295 31.584 152.983 30.496L151.751 29.552C151.303 30.16 150.535 30.48 149.719 30.48C148.615 30.48 147.815 29.952 147.607 28.912H153.383C153.415 28.64 153.431 28.4 153.431 28.192ZM147.607 27.616C147.831 26.48 148.631 26 149.639 26C150.679 26 151.463 26.592 151.575 27.616H147.607Z" fill="#000D4F"/>
</svg>
