<svg width="40" height="40" viewBox="0 0 40 40" fill="none" xmlns="http://www.w3.org/2000/svg">
<path d="M28.997 24.3616C28.629 24.3616 28.3306 24.66 28.3306 25.028V39.3335C28.3306 39.7016 28.629 40 28.997 40C29.3651 40 29.6635 39.7016 29.6635 39.3335V25.028C29.6635 24.6599 29.3652 24.3616 28.997 24.3616Z" fill="#73D6C4"/>
<path d="M25.4268 9.53915C25.1731 9.30872 24.786 9.30839 24.5319 9.53823L22.0593 12.0088H19.6447C19.2767 12.0088 18.9783 12.3072 18.9783 12.6752C18.9783 13.0433 19.2767 13.3417 19.6447 13.3417H24.6578C25.0259 13.3417 25.3243 13.0433 25.3243 12.6752C25.3243 12.3072 25.0259 12.0088 24.6578 12.0088H23.944L25.4722 10.4806C25.7196 10.2081 25.6993 9.78657 25.4268 9.53915Z" fill="#73D6C4"/>
<path d="M32.822 21.6057C32.0092 19.5619 30.5939 17.8137 28.7639 16.5933L26.6759 15.2077C30.2899 12.0717 30.6773 6.59963 27.5412 2.98569C24.4051 -0.628256 18.9331 -1.01572 15.3192 2.12038C11.7052 5.25647 11.3178 10.7285 14.4539 14.3424C14.9892 14.9594 15.6092 15.4975 16.2952 15.9409L15.3881 16.584C11.8023 19.1343 8.8387 22.4615 6.71887 26.3176C6.46978 26.7708 6.33874 27.2794 6.33766 27.7964V28.2856C6.33557 29.0942 6.65431 29.8705 7.22404 30.4443C7.78995 31.0138 8.55921 31.3346 9.36204 31.336H12.3358V39.3335C12.3358 39.7015 12.6342 39.9999 13.0022 39.9999C13.3703 39.9999 13.6687 39.7015 13.6687 39.3335V31.336H19.6755C21.1319 31.3407 22.3165 30.1639 22.3212 28.7074C22.3217 28.5662 22.3108 28.4251 22.2886 28.2856L23.227 27.0447C25.2709 24.3661 26.8644 21.3722 27.9449 18.1808C27.9995 18.0162 28.0448 17.8762 28.0855 17.7476C29.6637 18.8165 30.8844 20.3348 31.5897 22.1056C32.0811 23.3233 32.3324 24.6245 32.3295 25.9377V39.3335C32.3295 39.7015 32.6279 39.9999 32.9959 39.9999C33.364 39.9999 33.6624 39.7015 33.6624 39.3335V25.9377C33.6649 24.4529 33.3795 22.9818 32.822 21.6057ZM9.36204 30.0031C8.91593 30.0019 8.48856 29.8233 8.17441 29.5066C7.8511 29.1826 7.66982 28.7433 7.67057 28.2856V27.7964C7.67049 27.5039 7.74413 27.216 7.8845 26.9594C9.12994 24.6963 10.6834 22.6168 12.5004 20.7807L13.1182 26.0043H11.0029C10.6348 26.0043 10.3364 26.3028 10.3364 26.6708C10.3364 27.0389 10.6348 27.3373 11.0029 27.3373H13.2688L13.582 30.0031H9.36204ZM23.9988 1.99192L19.5408 3.86799L16.9497 2.5724C19.0417 1.17518 21.7064 0.955744 23.9988 1.99192ZM15.8187 3.49744L17.9227 4.54978L14.1305 6.14394C14.4961 5.15042 15.0719 4.24771 15.8187 3.49744ZM13.7353 7.75943L25.4197 2.83965C25.819 3.14206 26.1867 3.48436 26.5166 3.86133L13.9019 10.4692C13.6679 9.58586 13.6113 8.66481 13.7353 7.75943ZM14.6875 12.3851C14.5647 12.1765 14.4522 11.9619 14.3506 11.7421L27.3058 4.95223C29.3583 8.43664 28.1975 12.9252 24.7131 14.9778C21.2286 17.0303 16.7401 15.8696 14.6875 12.3851ZM14.9303 30.0031L13.71 19.6277C14.2032 19.1852 14.7164 18.768 15.2395 18.3614L18.1493 30.0031H14.9303V30.0031ZM20.6158 29.6145C20.3677 29.864 20.03 30.004 19.6781 30.0031H19.5235L18.8571 27.3373H19.6615C20.0275 27.3397 20.3767 27.4913 20.6285 27.7571C21.1274 28.2777 21.1218 29.1007 20.6158 29.6145ZM26.6873 17.7569C25.6512 20.8117 24.1244 23.6772 22.1667 26.2409L21.6542 26.9187C21.6235 26.8847 21.6015 26.8454 21.5695 26.8121C21.068 26.2972 20.3802 26.006 19.6615 26.0043H18.5238L16.4012 17.501L17.6088 16.6453C20.189 17.7496 23.1455 17.5273 25.5316 16.0495L26.9312 16.9745C26.8852 17.1411 26.8112 17.3864 26.6873 17.7569Z" fill="#73D6C4"/>
</svg>
