<svg width="40" height="40" viewBox="0 0 40 40" fill="none" xmlns="http://www.w3.org/2000/svg">
<path d="M38.846 35.8268H33.0695V35.1167C33.0695 34.3942 32.4816 33.8064 31.7592 33.8064H31.2212L31.0507 32.1326H37.3861C38.2756 32.1326 38.9993 31.4089 38.9993 30.5193V21.4511C38.9993 20.5616 38.2756 19.8378 37.3861 19.8378H20.9999C20.1104 19.8378 19.3866 20.5615 19.3866 21.4511V26.3542C18.0874 25.9282 16.2938 25.6453 15.2362 25.5034H15.2361C15.147 25.4915 15.0801 25.4149 15.0804 25.3253L15.0876 23.6104C15.2131 23.5186 15.3366 23.4216 15.4578 23.3182C16.3738 22.5362 16.9659 21.4186 17.1288 20.1916C17.4314 20.147 17.7109 20.0079 17.9322 19.7884C18.2061 19.5169 18.3579 19.1548 18.3595 18.769L18.3634 17.818C18.3652 17.4087 18.1956 17.0276 17.9054 16.7571L17.918 13.7787C17.923 12.5926 16.9646 11.623 15.7799 11.613C15.4795 10.7605 14.6706 10.1853 13.7665 10.1815L10.0387 10.1658C10.0326 10.1658 10.0268 10.1658 10.0207 10.1658C7.71282 10.1658 5.83017 12.0386 5.8204 14.3487L5.81048 16.7062C5.51798 16.9741 5.34524 17.3539 5.34345 17.7631L5.33946 18.7142C5.33642 19.4359 5.86595 20.0379 6.55806 20.1469C6.71056 21.3751 7.29337 22.4979 8.20267 23.2876C8.3229 23.3921 8.44571 23.4901 8.5704 23.583L8.56321 25.2979C8.56282 25.3875 8.49524 25.4635 8.40602 25.4748H8.40595C7.14618 25.6329 4.84267 25.9818 3.5679 26.5429C2.01267 27.2275 1.00313 28.7678 0.995947 30.4671L0.992275 31.333C0.990869 31.6565 1.25212 31.9199 1.57571 31.9213H1.57821C1.90063 31.9213 2.16274 31.6606 2.16407 31.3379L2.16774 30.4721C2.17298 29.2351 2.9079 28.1138 4.04001 27.6154C4.52696 27.401 5.21556 27.2178 5.92423 27.068L7.92876 29.6953C8.41634 30.3344 9.23923 30.5332 9.93102 30.2768L10.4033 30.9687L9.65345 35.8269H5.48306L5.49165 33.7901C5.49306 33.4666 5.23181 33.2031 4.90821 33.2017C4.90735 33.2017 4.90657 33.2017 4.90571 33.2017C4.58329 33.2017 4.32118 33.4624 4.31985 33.7851L4.31126 35.8269H2.14517L2.15251 34.0844C2.15392 33.7609 1.89267 33.4974 1.56907 33.496C1.56821 33.496 1.56743 33.496 1.56657 33.496C1.24415 33.496 0.982041 33.7567 0.980713 34.0794L0.973291 35.8382C0.433525 35.912 0.0158691 36.3749 0.0158691 36.9345V38.8922C0.0158691 39.503 0.512822 39.9999 1.1236 39.9999H38.846C39.4569 39.9999 39.9538 39.503 39.9538 38.8922V36.9345C39.9538 36.3237 39.4569 35.8268 38.846 35.8268V35.8268ZM31.8976 35.1167V35.8268H26.4882V35.1167C26.4882 35.0403 26.5503 34.9783 26.6266 34.9783H31.7591C31.8356 34.9782 31.8976 35.0403 31.8976 35.1167ZM27.3352 32.1326L27.1648 33.8064H26.6266C25.9041 33.8064 25.3164 34.3942 25.3164 35.1167V35.8268H22.5813L22.5983 32.1326H27.3352ZM28.3427 33.8064L28.5666 31.607C28.5666 31.6067 28.5667 31.6065 28.5667 31.6062L28.6411 30.8764C28.6415 30.8723 28.6449 30.8693 28.6489 30.8693H29.737C29.741 30.8693 29.7444 30.8723 29.7448 30.8764L29.8191 31.6055C29.8191 31.6063 29.8192 31.6071 29.8193 31.6079L30.0432 33.8066H28.3427V33.8064ZM20.5585 21.4511C20.5585 21.2077 20.7566 21.0097 20.9999 21.0097H37.386C37.6294 21.0097 37.8274 21.2077 37.8274 21.4511V30.5193C37.8274 30.7627 37.6294 30.9607 37.386 30.9607H30.9313L30.9106 30.7576C30.8491 30.1531 30.3445 29.6973 29.737 29.6973H28.649C28.0414 29.6973 27.5369 30.1531 27.4754 30.7576L27.4547 30.9607H20.9999C20.7565 30.9607 20.5585 30.7627 20.5585 30.5193V21.4511ZM20.9999 32.1326H21.4265L21.4095 35.8268H19.2439L19.2523 33.848C19.2537 33.5245 18.9924 33.2611 18.6688 33.2597C18.668 33.2597 18.6672 33.2597 18.6663 33.2597C18.3439 33.2597 18.0818 33.5204 18.0805 33.8431L18.0721 35.8268H13.8988L13.1929 30.9829L13.6652 30.2846C14.372 30.5582 15.196 30.3502 15.6822 29.7237L17.7046 27.1176C18.321 27.2534 18.9216 27.4144 19.3868 27.598V30.5193C19.3866 31.4089 20.1104 32.1326 20.9999 32.1326V32.1326ZM11.3302 30.248L10.902 29.6205L11.8075 28.9066L12.7004 29.6193L12.2724 30.252L11.3302 30.248ZM15.2876 26.6933C15.5916 26.7358 15.984 26.7944 16.4149 26.868L14.7563 29.0054C14.5581 29.2607 14.1884 29.3076 13.9328 29.1035L12.8248 28.2191L15.2876 26.6933ZM6.99227 14.3535C6.99931 12.6878 8.35665 11.3376 10.0209 11.3376H10.0338L13.7616 11.3533C14.172 11.355 14.5391 11.6162 14.6751 12.0031C14.8388 12.4685 15.277 12.7826 15.7656 12.7847C16.3087 12.7869 16.7486 13.2307 16.7463 13.7738L16.7349 16.4841C16.3477 16.5158 16.0397 16.5837 15.7977 16.6638L15.8038 15.2263C15.8084 14.1549 14.9447 13.283 13.8726 13.2785L13.8561 13.2784C13.5674 13.2778 13.2816 13.3209 13.0059 13.4084C12.2808 13.6383 11.4513 13.6316 10.7384 13.3988C10.4634 13.3091 10.1777 13.2629 9.88954 13.2617L9.87306 13.2616C9.87016 13.2616 9.86735 13.2616 9.86454 13.2616C8.81126 13.2616 7.92977 14.1104 7.92524 15.1931L7.91845 16.8487L7.78298 16.8562C7.51829 16.6623 7.22977 16.5542 6.98337 16.4941L6.99227 14.3535ZM7.69056 19.5698C7.68509 19.2511 7.42579 18.9953 7.10704 18.994L6.78267 18.9926C6.63243 18.992 6.51063 18.8692 6.51134 18.719L6.51532 17.768C6.51556 17.7025 6.53821 17.6487 6.56985 17.6069C6.72345 17.6298 6.95415 17.6868 7.12485 17.8284C7.29821 17.9723 7.51766 18.0439 7.7422 18.032L8.24681 18.0041C8.71704 17.9779 9.08696 17.5884 9.08899 17.1174L9.09688 15.198C9.09868 14.7639 9.45626 14.4295 9.86766 14.4334L9.88431 14.4335C10.0506 14.4342 10.2156 14.4608 10.3747 14.5128C11.3376 14.827 12.4152 14.825 13.36 14.5254C13.5172 14.4755 13.68 14.4502 13.8438 14.4502H13.8507L13.8673 14.4503C14.2914 14.452 14.6337 14.7969 14.6319 15.2213L14.6227 17.3747C14.6215 17.6741 14.7987 17.9427 15.0742 18.0593C15.1678 18.0989 15.266 18.1181 15.3634 18.1181C15.5534 18.1181 15.7399 18.0449 15.8815 17.9062C16.0301 17.7609 16.6232 17.6568 17.1295 17.6401C17.1656 17.6836 17.192 17.7414 17.1917 17.813L17.1877 18.7641C17.1874 18.8623 17.1371 18.9267 17.1071 18.9563C17.0774 18.9859 17.0129 19.0353 16.9154 19.0353C16.915 19.0353 16.9145 19.0353 16.9141 19.0353L16.5895 19.0339C16.2672 19.0323 16.0095 19.2862 16.0013 19.6048C15.9728 20.7149 15.4974 21.7436 14.697 22.4269C12.9963 23.8787 10.6752 23.8827 8.97102 22.4026C8.17642 21.7128 7.7097 20.6802 7.69056 19.5698ZM13.913 24.274L13.9086 25.3203C13.9075 25.5832 13.9836 25.8307 14.1155 26.0409L11.8127 27.4677L9.52204 26.0216C9.65571 25.8124 9.73391 25.5656 9.73509 25.3027L9.73946 24.2563C11.046 24.8104 12.527 24.848 13.913 24.274V24.274ZM8.86048 28.9845L7.2161 26.8292C7.64751 26.7592 8.04032 26.7039 8.34454 26.664L10.7963 28.2118L9.68407 29.0886C9.42931 29.2893 9.05868 29.2443 8.86048 28.9845V28.9845ZM11.5192 31.4207L12.0727 31.423L12.7144 35.8268H10.8391L11.5192 31.4207ZM38.782 38.8281H1.18767V36.9987H38.782V38.8281Z" fill="#F4E134"/>
<path d="M29.1929 27.5288C30.4146 27.5288 31.4085 26.5349 31.4085 25.3132C31.4085 24.0914 30.4146 23.0975 29.1929 23.0975C27.9712 23.0975 26.9773 24.0914 26.9773 25.3132C26.9773 26.5349 27.9712 27.5288 29.1929 27.5288ZM29.1929 24.2693C29.7685 24.2693 30.2367 24.7376 30.2367 25.3132C30.2367 25.8887 29.7685 26.357 29.1929 26.357C28.6173 26.357 28.1491 25.8887 28.1491 25.3132C28.1491 24.7376 28.6173 24.2693 29.1929 24.2693Z" fill="#F4E134"/>
<path d="M32.5437 4.06555C32.2201 4.06555 31.9578 4.32782 31.9578 4.65149V7.23204C31.9578 7.66993 32.314 8.02625 32.7522 8.02625L34.1559 8.02571C34.4795 8.02555 34.7417 7.76321 34.7416 7.43954C34.7415 7.11602 34.4792 6.85383 34.1557 6.85383C34.1557 6.85383 34.1555 6.85383 34.1554 6.85383L33.1296 6.85422V4.65149C33.1296 4.32782 32.8673 4.06555 32.5437 4.06555V4.06555Z" fill="#F4E134"/>
<path d="M32.5435 14.8805C36.6461 14.8805 39.9838 11.5428 39.9838 7.44031C39.9838 3.33773 36.6461 0 32.5435 0C28.4409 0 25.1033 3.33773 25.1033 7.44031C25.1033 11.5429 28.4409 14.8805 32.5435 14.8805ZM32.5435 1.1718C35.9999 1.1718 38.8119 3.98391 38.8119 7.44031C38.8119 10.8967 35.9999 13.7088 32.5435 13.7088C29.0871 13.7088 26.2751 10.8967 26.2751 7.44031C26.2751 3.98391 29.0871 1.1718 32.5435 1.1718V1.1718Z" fill="#F4E134"/>
<path d="M32.5435 12.8299C35.5153 12.8299 37.9331 10.4121 37.9331 7.44035C37.9331 4.46855 35.5154 2.05066 32.5435 2.05066C30.1124 2.05066 28.0556 3.66066 27.3847 5.87589C27.2909 6.18558 27.4659 6.51269 27.7756 6.60644C28.0852 6.70011 28.4124 6.52519 28.5062 6.2155C29.04 4.45324 30.7002 3.22246 32.5435 3.22246C34.8692 3.22246 36.7612 5.11456 36.7612 7.44027C36.7612 9.76589 34.8691 11.658 32.5435 11.658C30.6854 11.658 29.0666 10.4671 28.5153 8.69472C28.4192 8.38574 28.0909 8.21292 27.7818 8.30933C27.4728 8.40535 27.3002 8.73378 27.3963 9.04277C28.1009 11.3079 30.1695 12.8299 32.5435 12.8299Z" fill="#F4E134"/>
</svg>
