<svg width="42" height="42" viewBox="0 0 42 42" fill="none" xmlns="http://www.w3.org/2000/svg">
<path d="M20.9206 21.3667L16.8923 20.1451L16.454 19.2687C16.3175 18.9954 16.0052 18.869 15.7227 18.9565V18.804C17.3908 17.5989 18.5229 15.6955 18.6835 13.5252C19.4652 13.3067 20.0804 12.6711 20.2092 11.8786C20.2905 11.3788 20.1843 10.8867 19.9413 10.4777C20.719 10.0706 21.2512 9.25602 21.2512 8.31915C21.2512 7.46947 20.801 6.69526 20.1008 6.2591C20.1395 6.10029 20.1592 5.93664 20.1592 5.7711C20.1592 4.62898 19.2301 3.69981 18.0879 3.69981C17.814 3.69981 17.5524 3.75379 17.3129 3.85083C16.1273 2.77376 14.6092 2.18396 12.9918 2.18396H10.0797C8.4693 2.18396 6.94492 2.77475 5.75834 3.85075C5.51881 3.75371 5.25737 3.69981 4.98347 3.69981C3.84135 3.69981 2.91219 4.62898 2.91219 5.7711C2.91219 5.93672 2.93196 6.10037 2.97059 6.2591C2.27037 6.69526 1.82019 7.46947 1.82019 8.31915C1.82019 9.25553 2.35175 10.0696 3.12858 10.477C2.88618 10.8846 2.78061 11.3765 2.86223 11.8786C2.99102 12.6711 3.60617 13.3067 4.38793 13.5252C4.54813 15.6925 5.67745 17.5936 7.34187 18.7989V18.9542C7.06115 18.8709 6.7528 18.9976 6.61728 19.2686L6.1794 20.1443L1.995 21.3996C0.80169 21.7576 0 22.8352 0 24.081V39.2006C0 39.5403 0.27546 39.8158 0.615233 39.8158C0.955006 39.8158 1.23047 39.5403 1.23047 39.2006V24.081C1.23047 24.0359 1.23252 23.9913 1.23621 23.947L3.69542 26.4062C4.12928 26.84 4.36816 27.4168 4.36816 28.0303V39.2005C4.36816 39.5403 4.64362 39.8157 4.98339 39.8157C5.32316 39.8157 5.59862 39.5403 5.59862 39.2005V28.0303C5.59862 27.0881 5.2317 26.2023 4.56544 25.5361L1.85612 22.8268C2.00115 22.7185 2.16628 22.6329 2.34855 22.5783L5.12046 21.7467C5.33752 22.3568 6.94943 26.5466 11.1944 29.3765C11.2977 29.4454 11.4167 29.4799 11.5356 29.4799C11.6546 29.4799 11.7735 29.4454 11.8769 29.3765C16.264 26.4518 17.829 22.1283 17.9578 21.754L20.5636 22.5442C20.6232 22.5623 20.6832 22.5709 20.7424 22.5709C21.0063 22.5709 21.2503 22.3997 21.3309 22.134C21.4295 21.8088 21.2458 21.4654 20.9206 21.3667ZM15.9055 20.9231L13.8264 23.522C13.7979 23.5577 13.7636 23.565 13.7365 23.5643C13.7113 23.5639 13.6755 23.5558 13.6481 23.5192L12.4702 21.9486L15.6286 20.3694L15.9055 20.9231ZM11.5356 21.0401L8.57225 19.5585V19.5172C9.4759 19.9292 10.4794 20.1591 11.5356 20.1591C12.5892 20.1591 13.5903 19.9302 14.4922 19.5201V19.5618L11.5356 21.0401ZM18.0879 4.93036C18.5515 4.93036 18.9287 5.30754 18.9287 5.77118C18.9287 5.93541 18.8803 6.09528 18.7888 6.23351C18.6801 6.39765 18.6566 6.60388 18.7255 6.78828C18.7944 6.97269 18.9473 7.11296 19.1369 7.16579C19.6573 7.31066 20.0208 7.78496 20.0208 8.31923C20.0208 8.9836 19.4803 9.5241 18.8159 9.5241C18.1515 9.5241 17.611 8.9836 17.611 8.31923C17.611 8.02154 17.7254 7.7332 17.9332 7.50745C18.0664 7.36275 18.1224 7.16308 18.0838 6.97023C18.0453 6.77737 17.9168 6.61454 17.7383 6.53218C17.4399 6.39445 17.247 6.09578 17.247 5.77118C17.247 5.30754 17.6242 4.93036 18.0879 4.93036ZM3.05049 8.31923C3.05057 7.78504 3.41397 7.31074 3.93438 7.16587C4.12403 7.11304 4.27694 6.97277 4.34576 6.78836C4.41459 6.60396 4.39104 6.39773 4.28243 6.23359C4.19097 6.09537 4.14257 5.93549 4.14257 5.77126C4.14257 5.30762 4.51975 4.93044 4.98339 4.93044C5.44703 4.93044 5.82421 5.30754 5.82421 5.77118C5.82421 6.09578 5.63135 6.39453 5.33292 6.53218C5.15434 6.61454 5.02588 6.77737 4.98741 6.97023C4.94885 7.16308 5.0048 7.36275 5.13802 7.50745C5.3458 7.7332 5.46024 8.02154 5.46024 8.31923C5.46024 8.9836 4.91973 9.5241 4.25536 9.5241C3.59099 9.5241 3.05049 8.9836 3.05049 8.31923ZM5.59862 12.9916C5.59862 12.6519 5.32316 12.3764 4.98339 12.3764C4.53091 12.3764 4.14101 12.0776 4.07662 11.6813C4.0032 11.2298 4.27948 10.8145 4.71917 10.7154C4.74296 10.71 4.76584 10.703 4.78832 10.6951C5.87556 10.4513 6.69062 9.47898 6.69062 8.31931C6.69062 7.94303 6.60235 7.57562 6.436 7.24265C6.82417 6.85965 7.05467 6.33137 7.05467 5.77118C7.05467 5.35586 6.9313 4.96892 6.71999 4.64432C7.659 3.84944 8.83754 3.41451 10.0796 3.41451H12.9917C14.2392 3.41451 15.4142 3.8473 16.3522 4.64284C16.1403 4.96777 16.0166 5.3552 16.0166 5.77118C16.0166 6.33137 16.2471 6.85965 16.6353 7.24265C16.4688 7.57562 16.3806 7.94303 16.3806 8.31931C16.3806 9.50236 17.2288 10.4907 18.349 10.7092C18.3678 10.7169 18.3872 10.7239 18.4071 10.7298C18.759 10.8349 19.0737 11.1954 18.9947 11.6814C18.9303 12.0776 18.5404 12.3765 18.0879 12.3765C17.7482 12.3765 17.4727 12.6519 17.4727 12.9917C17.4727 16.2654 14.8094 18.9287 11.5357 18.9287C8.26201 18.9287 5.59862 16.2653 5.59862 12.9916ZM7.24769 20.7591L7.4426 20.3694L10.6011 21.9486L9.42324 23.5192C9.39584 23.5558 9.35999 23.5639 9.33481 23.5643C9.3079 23.5664 9.27345 23.5577 9.2449 23.522L7.18223 20.9437C7.21365 20.8862 7.23572 20.824 7.24769 20.7591ZM11.5356 28.1178C8.78135 26.1603 7.29896 23.5984 6.66896 22.2717L8.28407 24.2906C8.54108 24.6118 8.92211 24.7948 9.33235 24.7948C9.33957 24.7948 9.34679 24.7947 9.35401 24.7946C9.77245 24.788 10.1564 24.5922 10.4075 24.2575L10.9203 23.5737V26.0962C10.9203 26.436 11.1958 26.7114 11.5355 26.7114C11.8753 26.7114 12.1508 26.436 12.1508 26.0962V23.5737L12.6636 24.2575C12.9146 24.5923 13.2986 24.788 13.7171 24.7946C13.7243 24.7947 13.7315 24.7948 13.7387 24.7948C14.149 24.7948 14.53 24.6118 14.787 24.2906L16.407 22.2655C15.7821 23.5886 14.3042 26.1512 11.5356 28.1178Z" fill="#6087FF"/>
<path d="M13.3792 14.6979C13.1153 14.4838 12.7278 14.5242 12.5138 14.7881C12.2521 15.1108 11.9047 15.2885 11.5356 15.2885C11.1665 15.2885 10.819 15.1108 10.5574 14.7881C10.3434 14.5242 9.95592 14.4839 9.69203 14.6979C9.42813 14.9119 9.38777 15.2993 9.60179 15.5632C10.0944 16.1706 10.7993 16.5189 11.5357 16.5189C12.2721 16.5189 12.9767 16.1705 13.4694 15.5632C13.6834 15.2993 13.643 14.9119 13.3792 14.6979Z" fill="#6087FF"/>
<path d="M8.62353 10.9203C8.28376 10.9203 8.0083 11.1957 8.0083 11.5355V12.2635C8.0083 12.6033 8.28376 12.8788 8.62353 12.8788C8.96331 12.8788 9.23877 12.6033 9.23877 12.2635V11.5355C9.23877 11.1957 8.96331 10.9203 8.62353 10.9203Z" fill="#6087FF"/>
<path d="M14.4478 10.9203C14.108 10.9203 13.8325 11.1957 13.8325 11.5355V12.2635C13.8325 12.6033 14.108 12.8788 14.4478 12.8788C14.7875 12.8788 15.063 12.6033 15.063 12.2635V11.5355C15.063 11.1957 14.7875 10.9203 14.4478 10.9203Z" fill="#6087FF"/>
<path d="M20.707 24.205C20.4667 23.9647 20.0771 23.9647 19.837 24.205L18.5058 25.5361C17.8396 26.2024 17.4727 27.0881 17.4727 28.0303V39.2005C17.4727 39.5403 17.7481 39.8157 18.0879 39.8157C18.4277 39.8157 18.7031 39.5403 18.7031 39.2005V28.0303C18.7031 27.4168 18.9421 26.84 19.3759 26.4062L20.707 25.0751C20.9472 24.8348 20.9472 24.4453 20.707 24.205Z" fill="#6087FF"/>
<path d="M33.0359 19.7941C32.772 19.58 32.3845 19.6204 32.1705 19.8843C31.9089 20.207 31.5615 20.3847 31.1923 20.3847C30.8232 20.3847 30.4758 20.207 30.2141 19.8843C30.0002 19.6204 29.6127 19.5801 29.3488 19.7941C29.0849 20.0081 29.0445 20.3955 29.2585 20.6594C29.751 21.2667 30.4559 21.6151 31.1922 21.6151C31.9286 21.6151 32.6335 21.2667 33.1261 20.6594C33.3401 20.3955 33.2998 20.0081 33.0359 19.7941Z" fill="#6087FF"/>
<path d="M24.6401 30.577C24.3004 30.577 24.0249 30.8525 24.0249 31.1923V39.2005C24.0249 39.5403 24.3004 39.8158 24.6401 39.8158C24.9799 39.8158 25.2554 39.5403 25.2554 39.2005V31.1923C25.2554 30.8525 24.9799 30.577 24.6401 30.577Z" fill="#6087FF"/>
<path d="M37.7446 30.577C37.4049 30.577 37.1294 30.8525 37.1294 31.1923V39.2005C37.1294 39.5403 37.4049 39.8158 37.7446 39.8158C38.0844 39.8158 38.3599 39.5403 38.3599 39.2005V31.1923C38.3599 30.8525 38.0844 30.577 37.7446 30.577Z" fill="#6087FF"/>
<path d="M39.9433 26.3726C40.3276 25.8852 40.5439 25.2776 40.5439 24.64C40.5439 23.6032 39.9753 22.6753 39.0855 22.1927C39.0871 22.159 39.0879 22.1255 39.0879 22.0919C39.0879 21.2922 38.7007 20.5602 38.0686 20.1096C38.1105 19.9677 38.1493 19.8248 38.1822 19.6801C38.2619 19.3288 38.3127 18.9575 38.3366 18.5506C39.305 17.1218 39.8159 15.455 39.8159 13.7196C39.8159 8.96457 35.9474 5.09607 31.1924 5.09607C26.4373 5.09607 22.5688 8.96457 22.5688 13.7196C22.5688 15.4551 23.0798 17.122 24.0482 18.5507C24.0721 18.9578 24.1229 19.329 24.2026 19.68C24.2354 19.8247 24.2743 19.9676 24.3161 20.1096C23.6841 20.5601 23.2969 21.2921 23.2969 22.0919C23.2969 22.1255 23.2977 22.159 23.2992 22.1927C22.4094 22.6753 21.8408 23.6033 21.8408 24.64C21.8408 25.2776 22.0572 25.8852 22.4414 26.3726C21.1736 27.1334 20.3848 28.4999 20.3848 30.0165V39.2008C20.3848 39.5406 20.6602 39.8161 21 39.8161C21.3398 39.8161 21.6152 39.5406 21.6152 39.2008V30.0165C21.6152 28.7725 22.3616 27.67 23.5167 27.208L23.6344 27.1609C25.4541 29.6202 28.2575 31.0794 31.1924 31.0794C34.1675 31.0794 36.9094 29.6538 38.7499 27.1607L38.8681 27.208C40.0233 27.67 40.7696 28.7725 40.7696 30.0165V39.2005C40.7696 39.5403 41.045 39.8157 41.3848 39.8157C41.7246 39.8157 42 39.5403 42 39.2005V30.0165C42 28.4999 41.2111 27.1334 39.9433 26.3726ZM23.7993 13.7196C23.7993 9.64305 27.1158 6.32654 31.1924 6.32654C35.2689 6.32654 38.5854 9.64305 38.5854 13.7196C38.5854 14.7565 38.3724 15.7646 37.9626 16.695C37.0761 14.7875 35.1059 14.253 33.1892 13.7344C31.6398 13.3152 30.0375 12.8816 28.6645 11.7832C28.5194 11.6671 28.3295 11.6227 28.1482 11.6627C27.9667 11.7025 27.813 11.8222 27.7299 11.9884C27.7235 12.0011 27.079 13.2683 25.821 13.8973C25.517 14.0493 25.3938 14.4188 25.5458 14.7227C25.6978 15.0267 26.0672 15.15 26.3712 14.9979C27.3726 14.4972 28.0625 13.7021 28.4515 13.1517C29.8846 14.1149 31.4593 14.541 32.8678 14.9222C33.3302 15.0473 33.7557 15.1659 34.1446 15.2895C34.1311 15.2893 34.1178 15.2885 34.1044 15.2885C33.3546 15.2885 32.6966 15.6889 32.3331 16.2872C31.993 16.1121 31.6026 16.0165 31.1924 16.0165C30.782 16.0165 30.3916 16.1121 30.0516 16.2872C29.6879 15.689 29.0299 15.2885 28.2803 15.2885C27.1381 15.2885 26.209 16.2177 26.209 17.3598C26.209 18.5019 27.1381 19.4311 28.2803 19.4311C29.3447 19.4311 30.2238 18.6239 30.3385 17.5895C30.5392 17.3759 30.8531 17.247 31.1924 17.247C31.5316 17.247 31.8454 17.3759 32.0461 17.5895C32.1608 18.6239 33.0399 19.4311 34.1044 19.4311C35.2465 19.4311 36.1757 18.5019 36.1757 17.3598C36.1757 16.7615 35.9204 16.2219 35.5133 15.8435C36.3932 16.3229 36.9344 16.9923 37.1349 18.1745C37.1246 18.2158 37.118 18.2586 37.1164 18.3028C37.1017 18.7131 37.0577 19.0745 36.9821 19.4079C36.6893 20.6985 35.9574 21.8704 34.9214 22.7078C33.8554 23.5695 32.566 24.0249 31.1923 24.0249C29.8186 24.0249 28.5291 23.5695 27.4631 22.7078C26.4272 21.8704 25.6954 20.6985 25.4024 19.4079C25.327 19.0751 25.283 18.7141 25.2682 18.3039C25.2623 18.141 25.1935 17.9947 25.0856 17.8882C24.2437 16.6577 23.7993 15.2187 23.7993 13.7196ZM34.9453 17.3597C34.9453 17.8234 34.5681 18.2005 34.1045 18.2005C33.6408 18.2005 33.2636 17.8234 33.2636 17.3597C33.2636 16.8961 33.6408 16.5189 34.1045 16.5189C34.5681 16.5189 34.9453 16.8961 34.9453 17.3597ZM29.1211 17.3597C29.1211 17.8234 28.7439 18.2005 28.2803 18.2005C27.8166 18.2005 27.4394 17.8234 27.4394 17.3597C27.4394 16.8961 27.8166 16.5189 28.2803 16.5189C28.7439 16.5189 29.1211 16.8961 29.1211 17.3597ZM34.7294 25.5505C33.7728 26.4385 32.5215 26.9368 31.1923 26.9368C29.8644 26.9368 28.6125 26.4381 27.6556 25.5504C28.0398 25.3822 28.358 25.1062 28.5764 24.7588C29.4051 25.0834 30.2931 25.2552 31.1924 25.2552C32.0916 25.2552 32.9797 25.0834 33.8083 24.7588C34.0268 25.1063 34.3451 25.3824 34.7294 25.5505ZM23.6282 25.8381C23.277 25.5413 23.0714 25.1049 23.0714 24.6399C23.0713 23.9596 23.5124 23.3625 24.169 23.1541C24.4834 23.0543 24.663 22.7245 24.5766 22.4063C24.5429 22.2828 24.5273 22.1829 24.5273 22.0919C24.5273 21.8066 24.6274 21.5392 24.8002 21.3284C25.2562 22.2249 25.8993 23.0258 26.6897 23.6646C26.9343 23.8623 27.1914 24.0425 27.4585 24.2052C27.372 24.3048 27.2628 24.3843 27.1365 24.4348L23.6282 25.8381ZM31.1924 29.8489C28.7126 29.8489 26.4209 28.7034 24.8208 26.6863L26.4172 26.0479C27.6384 27.3994 29.3576 28.1673 31.1924 28.1673C33.029 28.1673 34.7464 27.3997 35.9676 26.0478L37.5645 26.6866C35.9636 28.703 33.6681 29.8489 31.1924 29.8489ZM38.7565 25.8382L35.2481 24.4348C35.1218 24.3843 35.0127 24.3048 34.9263 24.2052C35.1933 24.0425 35.4504 23.8623 35.6951 23.6646C36.4854 23.0258 37.1285 22.2248 37.5846 21.3284C37.7573 21.5392 37.8574 21.8066 37.8574 22.0919C37.8574 22.1829 37.8418 22.2828 37.8082 22.4063C37.7216 22.7245 37.9014 23.0543 38.2157 23.1541C38.8723 23.3625 39.3134 23.9596 39.3134 24.64C39.3134 25.105 39.1077 25.5414 38.7565 25.8382Z" fill="#6087FF"/>
</svg>
