<svg width="46" height="46" viewBox="0 0 46 46" fill="none" xmlns="http://www.w3.org/2000/svg">
<path d="M20.8441 13.6563C20.8441 14.8452 21.8115 15.8126 23.0003 15.8126C24.1892 15.8126 25.1566 14.8452 25.1566 13.6563C25.1566 13.3243 25.0754 13.0138 24.9403 12.7328L26.3835 11.2895L25.3672 10.2732L23.9239 11.7164C23.6429 11.5813 23.3324 11.5001 23.0003 11.5001C22.6683 11.5001 22.3578 11.5813 22.0768 11.7164L19.9148 9.55444L18.8984 10.5708L21.0604 12.7328C20.9253 13.0138 20.8441 13.3243 20.8441 13.6563ZM23.0003 12.9376C23.3964 12.9376 23.7191 13.2596 23.7191 13.6563C23.7191 14.0531 23.3964 14.3751 23.0003 14.3751C22.6043 14.3751 22.2816 14.0531 22.2816 13.6563C22.2816 13.2596 22.6043 12.9376 23.0003 12.9376Z" fill="#6087FF"/>
<path d="M33.0625 13.6562C33.0625 8.1075 28.5487 3.59375 23 3.59375C17.4513 3.59375 12.9375 8.1075 12.9375 13.6562C12.9375 19.205 17.4513 23.7188 23 23.7188C28.5487 23.7188 33.0625 19.205 33.0625 13.6562ZM17.4606 18.1793L16.4198 19.2201C15.2921 17.889 14.564 16.2136 14.4109 14.375H15.8125V12.9375H14.4117C14.5648 11.0989 15.2928 9.42425 16.4206 8.09241L17.4613 9.13316L18.4776 8.11684L17.4369 7.07609C18.768 5.94909 20.4427 5.22028 22.2812 5.06791V6.46875H23.7188V5.06791C25.5573 5.221 27.232 5.94909 28.5638 7.07681L27.5231 8.11756L28.5394 9.13387L29.5802 8.09313C30.7079 9.42425 31.436 11.0997 31.5891 12.9382H30.1875V14.3757H31.5883C31.4353 16.2143 30.7072 17.889 29.5794 19.2208L28.5387 18.1801L27.5224 19.1964L28.5631 20.2371C27.232 21.3648 25.5566 22.0929 23.718 22.246V20.8438H22.2805V22.2446C20.442 22.0915 18.7673 21.3634 17.4354 20.2357L18.4762 19.1949L17.4606 18.1793Z" fill="#6087FF"/>
<path d="M34.5 35.2188C34.0537 35.2188 33.4657 35.4035 32.9676 35.5968C32.7649 34.0925 32.2 31.625 30.9062 31.625C30.0351 31.625 27.5935 33.0812 26.1798 34.4324C26.082 34.2161 25.9807 34.0012 25.875 33.787V26.2603C31.6279 24.9485 35.9375 19.8008 35.9375 13.6562C35.9375 6.52266 30.1336 0.71875 23 0.71875C15.8664 0.71875 10.0625 6.52266 10.0625 13.6562C10.0625 19.8008 14.3721 24.9485 20.125 26.2603V33.787C20.0193 34.0012 19.918 34.2161 19.8203 34.4324C18.4065 33.0812 15.9649 31.625 15.0938 31.625C13.8 31.625 13.2351 34.0925 13.0331 35.5968C12.5343 35.4035 11.9463 35.2188 11.5 35.2188C10.0625 35.2188 10.0625 37.1601 10.0625 38.0938C10.0625 41.7479 12.1584 43.8438 15.8125 43.8438C17.0753 43.8438 17.9357 43.419 18.4898 42.9784C19.1892 44.0838 20.5951 45.2812 23 45.2812C25.4049 45.2812 26.8108 44.0838 27.5102 42.9784C28.0643 43.419 28.9247 43.8438 30.1875 43.8438C33.8416 43.8438 35.9375 41.7479 35.9375 38.0938C35.9375 37.1601 35.9375 35.2188 34.5 35.2188ZM30.7718 33.0977C31.1319 33.6167 31.625 35.4631 31.625 36.6562C31.625 40.0674 28.8039 40.9688 27.3125 40.9688C26.9042 40.9688 26.5628 40.9393 26.271 40.8962C26.9186 40.1422 27.3125 39.164 27.3125 38.0938C27.3125 37.5928 27.1033 36.7892 26.7749 35.885C27.6841 34.7803 30.0272 33.3486 30.7718 33.0977ZM20.125 38.0938C20.125 36.5736 22.1325 32.8059 23 31.791C23.8675 32.8052 25.875 36.5729 25.875 38.0938C25.875 39.6793 24.5856 40.9688 23 40.9688C21.4144 40.9688 20.125 39.6793 20.125 38.0938ZM11.5 13.6562C11.5 7.31544 16.6592 2.15625 23 2.15625C29.3408 2.15625 34.5 7.31544 34.5 13.6562C34.5 19.9971 29.3408 25.1562 23 25.1562C16.6592 25.1562 11.5 19.9971 11.5 13.6562ZM21.5625 26.5089C22.0354 26.5614 22.5134 26.5938 23 26.5938C23.4866 26.5938 23.9646 26.5614 24.4375 26.5089V31.3598C23.9121 30.6554 23.4032 30.1875 23 30.1875C22.5968 30.1875 22.0879 30.6554 21.5625 31.3598V26.5089ZM15.2246 33.1035C16.0123 33.3737 18.3238 34.7904 19.2251 35.885C18.8967 36.7892 18.6875 37.5928 18.6875 38.0938C18.6875 39.164 19.0814 40.1422 19.729 40.8962C19.4372 40.9393 19.0957 40.9688 18.6875 40.9688C17.1961 40.9688 14.375 40.0674 14.375 36.6562C14.375 35.4674 14.8645 33.6303 15.2246 33.1035ZM11.5 38.0938C11.5 37.2305 11.5632 36.8395 11.6308 36.6677C11.9614 36.7181 12.5113 36.9258 12.9619 37.1256C13.1538 40.1019 15.1304 41.6264 17.0487 42.1669C16.7282 42.3035 16.3286 42.4062 15.8125 42.4062C12.9512 42.4062 11.5 40.9551 11.5 38.0938ZM23 43.8438C21.1931 43.8438 20.2565 43.01 19.7937 42.338C20.3859 42.2625 20.8423 42.1353 21.1837 41.9994C21.7364 42.2582 22.3503 42.4062 23 42.4062C23.6497 42.4062 24.2636 42.2582 24.8163 41.9994C25.1577 42.1346 25.6134 42.2625 26.2049 42.3372C25.7413 43.0086 24.8048 43.8438 23 43.8438ZM30.1875 42.4062C29.6707 42.4062 29.2718 42.3035 28.9512 42.1669C30.8696 41.6264 32.8462 40.1012 33.0381 37.1249C33.488 36.9251 34.0378 36.7173 34.3692 36.6677C34.4368 36.8395 34.5 37.2305 34.5 38.0938C34.5 40.9551 33.0488 42.4062 30.1875 42.4062Z" fill="#6087FF"/>
<path d="M17.25 27.3125H18.6875V30.1875H17.25V27.3125Z" fill="#6087FF"/>
<path d="M14.375 28.75H15.8125V30.1875H14.375V28.75Z" fill="#6087FF"/>
<path d="M14.375 25.875H15.8125V27.3125H14.375V25.875Z" fill="#6087FF"/>
<path d="M11.5 25.875H12.9375V28.75H11.5V25.875Z" fill="#6087FF"/>
<path d="M11.5 30.1875H12.9375V33.0625H11.5V30.1875Z" fill="#6087FF"/>
<path d="M11.5 23H12.9375V24.4375H11.5V23Z" fill="#6087FF"/>
<path d="M27.3125 27.3125H28.75V30.1875H27.3125V27.3125Z" fill="#6087FF"/>
<path d="M30.1875 28.75H31.625V30.1875H30.1875V28.75Z" fill="#6087FF"/>
<path d="M30.1875 25.875H31.625V27.3125H30.1875V25.875Z" fill="#6087FF"/>
<path d="M33.0625 25.875H34.5V28.75H33.0625V25.875Z" fill="#6087FF"/>
<path d="M33.0625 30.1875H34.5V33.0625H33.0625V30.1875Z" fill="#6087FF"/>
<path d="M33.0625 23H34.5V24.4375H33.0625V23Z" fill="#6087FF"/>
</svg>
