<svg width="28" height="28" viewBox="0 0 28 28" fill="none" xmlns="http://www.w3.org/2000/svg">
<path d="M26.8569 0.565697L25.972 1.45063C24.4247 0.388964 21.514 0.332082 19.2819 0.523761C16.2709 0.785233 13.098 1.66081 11.3628 3.39595C7.99838 6.75762 4.65582 10.1055 1.29734 13.4657C0.220877 14.5422 0.220871 16.2936 1.29734 17.3701L10.7295 26.8048C11.806 27.8813 13.56 27.8813 14.6364 26.8048C17.5527 23.8982 20.1591 21.2827 22.9406 18.5015L20.6863 25.1103C20.2991 26.0865 19.2203 26.5551 18.2429 26.1698L17.1988 25.753C16.4044 25.406 16.1121 26.2524 16.7461 26.5001L17.9151 26.9811C17.9171 26.9823 17.9191 26.9834 17.9211 26.9845C19.3374 27.543 20.9444 26.8448 21.5028 25.4286C21.5055 25.4221 21.5081 25.4156 21.5105 25.4089L24.3459 17.0962L24.7062 16.7359C26.2962 15.146 27.149 11.9886 27.4492 8.94007C27.6789 6.75196 27.4307 3.64801 26.6028 2.06256L27.4783 1.18704C27.8871 0.68896 27.3055 0.144488 26.8569 0.565697ZM25.3335 2.08994L22.8157 4.60867C22.1617 4.10481 21.3091 3.86281 20.4364 4.01986C18.917 4.2602 17.7104 5.40695 17.9956 7.53136C18.2907 9.17093 19.871 10.269 21.5105 9.97392C23.1501 9.67883 24.2465 8.10112 23.9514 6.46156C23.7374 5.80422 22.9643 6.15511 23.1041 6.71489C23.2559 7.85127 22.496 8.90856 21.3556 9.1138C20.1822 9.32501 19.0703 8.55158 18.8591 7.37817C18.6355 6.13586 19.5011 5.03178 20.5939 4.88169C21.1781 4.77641 21.7433 4.92173 22.1935 5.23258L21.1348 6.29125C20.6555 6.70187 21.3421 7.38851 21.7527 6.90917L25.9643 2.70016C26.7099 4.37949 26.757 6.9434 26.5762 8.85277C26.2872 11.7882 25.3549 14.8445 24.0849 16.1146L19.2871 20.9132L7.1855 8.81169L11.9842 4.01387C13.433 2.56504 16.4709 1.64749 19.3589 1.39672C21.2851 1.22513 23.6308 1.10916 25.3335 2.08994ZM6.56588 9.43132L18.6674 21.5329L14.0159 26.1843C13.2721 26.9282 12.0939 26.9282 11.35 26.1843L1.9144 16.7487C1.17053 16.0049 1.17054 14.8275 1.9144 14.0837L6.56588 9.43132ZM6.3348 13.7122L8.79619 16.1702C9.20779 16.6111 9.85627 15.967 9.41753 15.5531L6.95528 13.0909C6.439 12.5984 5.91726 13.2947 6.3348 13.7122ZM4.38434 15.4915L8.58565 19.9068C8.98891 20.3317 9.62651 19.7266 9.22325 19.3017L5.01767 14.8864C4.52325 14.3774 3.96223 15.0337 4.38434 15.4915Z" fill="#6087FF"/>
</svg>
