<svg width="46" height="46" viewBox="0 0 46 46" fill="none" xmlns="http://www.w3.org/2000/svg">
<path d="M43.4022 6.18376L41.4365 4.45287L43.4022 2.72233C43.7079 2.4528 43.8124 2.03271 43.6689 1.65158C43.5247 1.27009 43.1684 1.02373 42.761 1.02373H34.6266V0.674178C34.6266 0.301818 34.3248 0 33.9525 0C33.5801 0 33.2783 0.301818 33.2783 0.674178V9.76663L27.7413 12.7732C27.7108 12.5297 27.6378 12.2903 27.5223 12.065L26.7422 10.5419C26.2066 9.49604 24.92 9.08157 23.8749 9.61677L23.2716 9.92561C22.7648 10.1853 22.3897 10.6261 22.2149 11.168C22.0401 11.7095 22.0868 12.2868 22.3465 12.7932L23.1267 14.3167C23.3088 14.6722 23.578 14.9537 23.8945 15.1509C23.4804 15.7086 23.2839 16.3943 23.0817 17.1068L22.9364 17.6213C22.835 17.9796 23.0435 18.3523 23.4018 18.4534C23.4629 18.4709 23.5246 18.479 23.5853 18.479C23.8794 18.479 24.1497 18.2853 24.2339 17.988L24.3792 17.4746C24.6747 16.4326 24.8561 15.8746 25.4338 15.5608L26.4695 14.9983L26.5972 14.933C26.6397 14.9112 26.6793 14.8867 26.7197 14.8624L34.1009 10.8542C34.0542 11.7769 33.5576 12.6486 32.7399 13.1452L27.94 16.0616C27.9343 16.0648 27.9287 16.068 27.9235 16.0715L26.4295 16.979C26.1115 17.1724 26.0101 17.5872 26.2034 17.9055C26.3856 18.2056 26.7646 18.3123 27.0738 18.1617L25.9402 21.5884L25.1116 21.9281L22.8585 22.8515L23.5078 20.5563C23.6089 20.198 23.4007 19.8252 23.0424 19.7238C22.6838 19.622 22.3114 19.8309 22.21 20.1892L21.1841 23.817C21.1708 23.8636 21.162 23.9149 21.1599 23.9637L20.8914 28.8952C20.8834 29.0833 20.9234 29.4389 20.8363 29.6224L17.8547 35.8953H15.6879C14.4185 35.8953 13.386 36.9278 13.386 38.1969V40.1429C13.0954 40.0099 12.7729 39.9355 12.4328 39.9355H6.93024C5.6612 39.9355 4.6287 40.9676 4.6287 42.237V44.6516H3.01012C2.63776 44.6516 2.33594 44.9534 2.33594 45.3257C2.33594 45.6981 2.63776 45.9999 3.01012 45.9999H42.7603C43.1326 45.9999 43.4345 45.6981 43.4345 45.3257C43.4345 44.9534 43.1326 44.6516 42.7603 44.6516H41.0069V27.2742C41.0069 26.0052 39.9744 24.9727 38.7054 24.9727H34.6266V13.2112C35.3742 12.198 35.6511 10.87 35.304 9.608C35.2496 9.40971 35.1074 9.24687 34.9179 9.1665C34.8249 9.12684 34.7253 9.1093 34.6266 9.11316V7.88237H42.7606C43.1684 7.88237 43.5247 7.636 43.6685 7.25487C43.8124 6.87373 43.7079 6.4533 43.4022 6.18376ZM23.4983 11.5821C23.5625 11.3831 23.7001 11.221 23.8861 11.1259L24.4894 10.817C24.6031 10.7588 24.7245 10.731 24.8446 10.731C25.1288 10.731 25.4036 10.8865 25.5419 11.1564L26.3224 12.6799C26.5046 13.0357 26.3866 13.4671 26.0627 13.685L25.843 13.804L25.3794 14.0416C24.9958 14.2381 24.5234 14.0858 24.3269 13.7018L23.5464 12.1787C23.4513 11.9927 23.4341 11.7807 23.4983 11.5821ZM22.1436 36.1027C21.9145 35.9981 21.6653 35.9297 21.4035 35.9055L22.1436 34.9225V36.1027ZM25.3447 30.6703C25.6689 30.2818 25.7584 29.8281 25.8307 29.4624C25.849 29.3753 26.1817 27.5581 26.1817 27.5581C26.1817 27.5581 26.4965 27.7543 26.5295 27.7683C26.5523 27.7785 26.5684 27.801 26.5709 27.8273L26.9376 31.5554H24.6782L25.3447 30.6703ZM29.3315 26.9492L28.7622 31.5523H28.2923L27.9129 27.6953C27.8645 27.2012 27.562 26.7699 27.1187 26.5554L26.4407 26.1255L26.8924 23.6222C26.8924 23.6222 28.7952 25.8827 28.8394 25.9402C29.2332 26.4523 29.368 26.6572 29.3315 26.9492ZM22.0492 30.212C22.1854 29.8021 22.2486 29.3848 22.238 28.9605L22.483 24.4627L25.6012 23.1849L25.0344 26.3245C25.0327 26.3329 25.0309 26.3417 25.0299 26.3501L24.561 28.9461C24.4999 29.215 24.4466 29.6228 24.2788 29.8442L19.7231 35.8953H19.3476L22.0492 30.212ZM5.97706 42.2367C5.97706 41.7113 6.40452 41.2838 6.93024 41.2838H12.4328C12.9585 41.2838 13.3863 41.7113 13.3863 42.2367V44.6516H5.97706V42.2367ZM14.7344 42.2367V38.1969C14.7344 37.6711 15.1622 37.2437 15.6879 37.2437H21.1905C21.7162 37.2437 22.1436 37.6711 22.1436 38.1969V44.6516H14.7347V42.2367H14.7344ZM39.6586 27.2742V44.6516H32.2496V40.6093C32.2496 40.2369 31.9478 39.9351 31.5755 39.9351C31.2027 39.9351 30.9009 40.2369 30.9009 40.6093V44.6516H23.492V33.8566C23.492 33.3313 23.9195 32.9038 24.4452 32.9038H29.9477C30.4735 32.9038 30.9009 33.3313 30.9009 33.8566V37.2363C30.9009 37.6087 31.2027 37.9105 31.5751 37.9105C31.9478 37.9105 32.2493 37.6087 32.2493 37.2363V27.2742C32.2493 26.7485 32.6771 26.321 33.2028 26.321H33.9454C33.9475 26.321 33.95 26.3214 33.9525 26.3214C33.9546 26.3214 33.957 26.321 33.9591 26.321H38.705C39.2308 26.321 39.6586 26.7488 39.6586 27.2742ZM33.2028 24.9727C31.9338 24.9727 30.9013 26.0052 30.9013 27.2742V31.7629C30.6598 31.6527 30.3966 31.5828 30.1197 31.5625L30.6697 27.1152C30.7777 26.2484 30.3355 25.6739 29.9081 25.1179C29.8628 25.059 27.2423 21.9475 27.2423 21.9475L28.85 17.0868L33.2783 14.3964V24.9727H33.2028ZM34.6266 6.53366V2.37243H41.759L40.2229 3.725C40.0137 3.90925 39.8937 4.17457 39.8937 4.45322C39.8937 4.73188 40.0137 4.9972 40.2229 5.18145L41.759 6.53401H34.6266V6.53366Z" fill="#D8C732"/>
</svg>
