<svg width="100" height="105" viewBox="0 0 100 105" fill="none" xmlns="http://www.w3.org/2000/svg">
<mask id="mask0" mask-type="alpha" maskUnits="userSpaceOnUse" x="0" y="0" width="100" height="105">
<path d="M100 50C100 22.3858 77.6142 0 50 0C22.3858 0 0 22.3858 0 50V52.2209C0 80.9659 23.3024 104.268 52.0474 104.268H100V50Z" fill="#EBEFFF"/>
</mask>
<g mask="url(#mask0)">
<path d="M100 50C100 22.3858 77.6142 0 50 0C22.3858 0 0 22.3858 0 50V52.2209C0 80.9659 23.3024 104.268 52.0474 104.268H100V50Z" fill="#EBEFFF"/>
<path d="M100 96.7383C100 69.124 77.6142 46.7383 50 46.7383C22.3858 46.7383 0 69.124 0 96.7383V98.9592C0 127.704 23.3024 151.007 52.0474 151.007H100V96.7383Z" fill="#EBEFFF" style="mix-blend-mode:multiply"/>
</g>
</svg>
