<svg width="193" height="201" viewBox="0 0 193 201" fill="none" xmlns="http://www.w3.org/2000/svg">
<mask id="mask0" mask-type="alpha" maskUnits="userSpaceOnUse" x="0" y="0" width="193" height="201">
<path d="M192.561 96.2808C192.561 43.1064 149.455 0 96.2807 0C43.1063 0 0 43.1063 0 96.2807V100.557C0 155.909 44.8715 200.78 100.223 200.78H192.561V96.2808Z" fill="#EBEFFF"/>
</mask>
<g mask="url(#mask0)">
<path d="M192.561 96.2808C192.561 43.1064 149.455 0 96.2807 0C43.1063 0 0 43.1063 0 96.2807V100.557C0 155.909 44.8715 200.78 100.223 200.78H192.561V96.2808Z" fill="#EBEFFF"/>
<path d="M192.561 186.281C192.561 133.106 149.455 90 96.2807 90C43.1063 90 0 133.106 0 186.281V190.557C0 245.909 44.8715 290.78 100.223 290.78H192.561V186.281Z" fill="#EBEFFF" style="mix-blend-mode:multiply"/>
</g>
</svg>
